<?xml version="1.0" encoding="UTF-8"?>
<svg xmlns="http://www.w3.org/2000/svg" xmlns:xlink="http://www.w3.org/1999/xlink" width="50px" height="71px" viewBox="0 0 50 71" version="1.1">
<g id="surface1">
<path style=" stroke:none;fill-rule:nonzero;fill:rgb(0%,0%,0%);fill-opacity:1;" d="M 10.957031 7.03125 C 10.589844 7.386719 10.296875 7.753906 10.054688 8.167969 L 9.933594 8.382812 L 10.023438 8.472656 C 10.144531 8.59375 10.214844 8.558594 10.4375 8.257812 C 10.539062 8.117188 10.710938 7.910156 10.816406 7.796875 C 11.03125 7.5625 11.050781 7.59375 10.941406 8.042969 C 10.878906 8.304688 10.324219 10.765625 10.015625 12.160156 C 9.933594 12.542969 9.773438 13.261719 9.664062 13.757812 C 9.339844 15.207031 9.167969 15.992188 8.933594 17.082031 C 8.546875 18.875 8.488281 19.179688 8.488281 19.285156 C 8.488281 19.503906 8.75 19.613281 8.898438 19.453125 C 8.941406 19.40625 9.046875 19 9.171875 18.410156 C 9.535156 16.65625 10.816406 12.277344 11.453125 10.613281 C 11.699219 9.96875 12.039062 9.320312 12.253906 9.09375 C 12.507812 8.816406 13.132812 8.414062 13.527344 8.269531 C 15.054688 7.710938 16.25 8.777344 16.691406 11.109375 C 16.804688 11.707031 16.808594 13.554688 16.695312 14.230469 C 16.574219 14.964844 16.402344 15.667969 16.207031 16.246094 C 16.027344 16.78125 16.019531 16.792969 15.859375 16.84375 C 14.804688 17.199219 11.667969 18.65625 10.289062 19.433594 C 8.867188 20.238281 7.769531 21.085938 7.5625 21.542969 C 7.378906 21.945312 7.492188 22.265625 7.890625 22.460938 C 8.085938 22.558594 8.179688 22.570312 8.699219 22.585938 C 9.640625 22.617188 10.503906 22.480469 11.582031 22.128906 C 13.03125 21.667969 14.121094 20.882812 15.128906 19.582031 C 15.585938 18.996094 16.15625 17.964844 16.402344 17.28125 L 16.507812 16.992188 L 17.039062 16.800781 C 17.652344 16.578125 18.503906 16.3125 18.71875 16.265625 C 18.851562 16.246094 18.875 16.21875 18.910156 16.058594 C 18.929688 15.960938 18.945312 15.875 18.941406 15.863281 C 18.917969 15.839844 17.832031 16.140625 17.308594 16.316406 C 16.996094 16.425781 16.730469 16.503906 16.722656 16.496094 C 16.710938 16.492188 16.777344 16.226562 16.863281 15.921875 C 17.6875 12.933594 17.386719 9.945312 16.109375 8.507812 C 15.890625 8.257812 15.699219 8.097656 15.414062 7.925781 C 15.039062 7.695312 14.855469 7.652344 14.300781 7.652344 C 13.84375 7.652344 13.789062 7.667969 13.46875 7.800781 C 13.011719 7.996094 12.675781 8.222656 12.242188 8.625 C 11.914062 8.929688 11.867188 8.996094 11.585938 9.574219 C 11.304688 10.136719 11.03125 10.8125 10.714844 11.714844 C 10.648438 11.902344 10.589844 12.046875 10.582031 12.035156 C 10.574219 12.03125 10.59375 11.898438 10.628906 11.742188 C 10.664062 11.585938 10.921875 10.429688 11.203125 9.175781 C 11.484375 7.921875 11.714844 6.875 11.714844 6.847656 C 11.714844 6.765625 11.570312 6.667969 11.453125 6.667969 C 11.359375 6.667969 11.246094 6.75 10.957031 7.03125 Z M 15.628906 17.703125 C 15.378906 18.242188 15.253906 18.464844 14.890625 18.992188 C 14.558594 19.484375 14.480469 19.582031 14.054688 20.027344 C 13.3125 20.804688 12.527344 21.296875 11.417969 21.675781 C 9.90625 22.191406 7.957031 22.304688 7.957031 21.878906 C 7.957031 21.273438 10.554688 19.613281 13.816406 18.140625 C 14.941406 17.632812 15.699219 17.308594 15.765625 17.304688 C 15.796875 17.300781 15.746094 17.464844 15.628906 17.703125 Z M 15.628906 17.703125 "/>
<path style=" stroke:none;fill-rule:nonzero;fill:rgb(0%,0%,0%);fill-opacity:1;" d="M 29.933594 8.597656 C 29.574219 8.640625 29.175781 8.773438 28.839844 8.957031 C 28.628906 9.074219 28.558594 9.144531 28.46875 9.320312 C 28.144531 9.964844 28.03125 10.671875 28.171875 11.21875 C 28.371094 11.988281 28.871094 12.679688 29.414062 12.929688 C 29.695312 13.0625 30.253906 13.160156 30.570312 13.136719 L 30.742188 13.121094 L 30.566406 13.011719 C 30.210938 12.796875 29.667969 12.210938 29.710938 12.09375 C 29.71875 12.070312 29.875 12.152344 30.054688 12.269531 C 30.542969 12.59375 31.191406 12.800781 31.429688 12.714844 C 31.527344 12.675781 31.519531 12.667969 31.28125 12.554688 C 31.027344 12.4375 30.453125 11.945312 30.453125 11.84375 C 30.453125 11.8125 30.515625 11.828125 30.632812 11.878906 C 31.050781 12.082031 32.078125 12.214844 32.265625 12.09375 C 32.324219 12.058594 32.324219 12.050781 32.261719 12.050781 C 32.113281 12.050781 31.460938 11.6875 31.222656 11.46875 C 30.960938 11.234375 30.738281 10.925781 30.613281 10.636719 C 30.539062 10.449219 30.570312 10.4375 30.742188 10.578125 C 30.949219 10.757812 31.390625 11 31.648438 11.074219 C 31.953125 11.160156 32.484375 11.160156 32.773438 11.070312 C 32.898438 11.03125 33.019531 11 33.042969 11 C 33.074219 11 33.152344 11.230469 33.222656 11.511719 C 33.34375 12.015625 33.367188 12.351562 33.304688 12.664062 C 33.277344 12.796875 33.308594 12.875 33.554688 13.296875 C 33.703125 13.5625 33.875 13.851562 33.929688 13.941406 C 34.117188 14.238281 34.0625 14.367188 33.671875 14.535156 C 33.445312 14.632812 33.441406 14.640625 33.457031 14.914062 C 33.464844 15.046875 33.441406 15.113281 33.375 15.171875 C 33.3125 15.230469 33.296875 15.289062 33.3125 15.390625 C 33.328125 15.484375 33.3125 15.558594 33.273438 15.597656 C 33.238281 15.632812 33.1875 15.703125 33.15625 15.761719 C 33.125 15.816406 33.0625 15.855469 33.003906 15.855469 C 32.867188 15.855469 31.929688 16.320312 31.492188 16.601562 C 30.769531 17.066406 30.207031 17.5 29.640625 18.03125 C 29.449219 18.210938 29.289062 18.351562 29.277344 18.339844 C 29.246094 18.304688 29.574219 17.367188 29.777344 16.90625 C 29.976562 16.457031 30.386719 15.707031 30.636719 15.34375 C 30.707031 15.242188 30.765625 15.132812 30.765625 15.105469 C 30.765625 15.019531 30.671875 14.9375 30.582031 14.9375 C 30.488281 14.9375 30.136719 15.398438 29.734375 16.03125 C 28.867188 17.40625 28.269531 18.042969 27.859375 18.042969 C 27.683594 18.042969 27.472656 17.941406 27.429688 17.847656 C 27.351562 17.636719 27.449219 17.203125 27.667969 16.773438 C 27.769531 16.578125 27.765625 16.582031 27.386719 16.941406 C 26.902344 17.394531 26.839844 17.40625 26.984375 17 L 27.050781 16.8125 L 26.816406 17.007812 C 25.90625 17.765625 24.859375 18.148438 23.921875 18.070312 C 23.34375 18.023438 23.015625 17.8125 22.90625 17.417969 C 22.851562 17.230469 22.824219 17.25 23.25 17.148438 C 23.804688 17.007812 24.492188 16.527344 24.667969 16.140625 C 24.710938 16.042969 24.753906 15.863281 24.753906 15.742188 C 24.753906 15.421875 24.625 15.242188 24.308594 15.144531 C 24.082031 15.0625 24.050781 15.0625 23.8125 15.128906 C 23.515625 15.214844 23.277344 15.351562 23.003906 15.601562 C 22.8125 15.777344 22.808594 15.78125 22.894531 15.84375 C 22.945312 15.878906 22.984375 15.953125 22.984375 16.007812 C 22.984375 16.09375 22.929688 16.144531 22.722656 16.257812 C 22.46875 16.398438 22.457031 16.40625 22.40625 16.65625 C 22.339844 16.980469 22.375 17.496094 22.488281 17.746094 C 22.589844 17.976562 22.804688 18.183594 23.070312 18.316406 C 23.253906 18.40625 23.324219 18.414062 23.980469 18.410156 C 24.617188 18.40625 24.726562 18.394531 25.078125 18.289062 C 25.550781 18.148438 26.054688 17.902344 26.542969 17.585938 L 26.894531 17.351562 L 26.921875 17.625 C 26.949219 17.9375 27.042969 18.117188 27.25 18.253906 C 27.679688 18.53125 28.164062 18.429688 28.65625 17.964844 C 28.824219 17.804688 28.855469 17.816406 28.769531 18.03125 C 28.742188 18.097656 28.648438 18.414062 28.554688 18.734375 C 28.394531 19.285156 28.371094 19.324219 28.148438 19.566406 C 27.859375 19.875 27.496094 20.347656 27.171875 20.847656 C 26.21875 22.292969 25.914062 23.753906 26.417969 24.421875 C 26.824219 24.960938 27.574219 24.785156 27.9375 24.078125 C 28.125 23.710938 28.402344 22.691406 28.554688 21.804688 C 28.695312 20.980469 28.992188 19.410156 29.058594 19.125 C 29.113281 18.886719 29.140625 18.847656 29.574219 18.445312 C 30.648438 17.441406 31.285156 16.972656 32.167969 16.539062 C 32.808594 16.222656 33.097656 16.125 33.144531 16.203125 C 33.179688 16.257812 33.144531 16.457031 33.085938 16.554688 C 33.007812 16.679688 32.753906 16.75 32.28125 16.773438 C 31.824219 16.796875 31.765625 16.808594 31.597656 16.929688 C 31.316406 17.128906 31.152344 17.453125 31.125 17.867188 C 31.109375 18.1875 31.195312 18.660156 31.285156 18.71875 C 31.304688 18.726562 31.3125 18.582031 31.304688 18.394531 C 31.289062 18.117188 31.308594 18.015625 31.386719 17.847656 C 31.546875 17.511719 31.808594 17.34375 32.992188 16.824219 C 33.757812 16.480469 34.386719 15.828125 34.683594 15.078125 C 34.777344 14.839844 34.804688 14.707031 34.804688 14.386719 C 34.808594 14.019531 34.800781 13.976562 34.679688 13.800781 L 34.550781 13.609375 L 34.496094 13.808594 C 34.457031 13.917969 34.40625 14.03125 34.371094 14.058594 C 34.320312 14.097656 34.308594 14.058594 34.292969 13.835938 C 34.277344 13.683594 34.230469 13.480469 34.183594 13.382812 L 34.105469 13.210938 L 34.085938 13.429688 C 34.0625 13.785156 33.902344 13.871094 33.902344 13.523438 C 33.898438 13.3125 33.808594 13.042969 33.707031 12.929688 C 33.601562 12.8125 33.621094 12.792969 33.847656 12.792969 C 34.03125 12.792969 34.152344 12.746094 34.613281 12.5 C 34.914062 12.34375 35.25 12.1875 35.355469 12.152344 C 35.867188 11.996094 36.59375 12.164062 36.886719 12.496094 C 37.183594 12.84375 37.273438 13.363281 37.136719 13.878906 C 37.089844 14.050781 37.015625 14.246094 36.96875 14.316406 L 36.890625 14.433594 L 36.835938 14.121094 C 36.707031 13.390625 36.371094 12.996094 35.75 12.859375 L 35.472656 12.800781 L 35.785156 12.796875 C 36.328125 12.789062 36.664062 12.972656 36.773438 13.332031 C 36.804688 13.433594 36.847656 13.5625 36.863281 13.625 C 36.894531 13.730469 36.898438 13.726562 36.949219 13.558594 C 37.09375 13.039062 36.902344 12.597656 36.433594 12.375 C 35.945312 12.144531 35.511719 12.226562 34.953125 12.640625 C 34.757812 12.789062 34.605469 12.863281 34.378906 12.921875 L 34.074219 13 L 34.226562 13.128906 C 34.617188 13.472656 35.167969 13.578125 35.761719 13.421875 C 36.050781 13.347656 36.082031 13.347656 36.191406 13.414062 C 36.355469 13.511719 36.667969 14.105469 36.726562 14.417969 C 36.757812 14.585938 36.757812 14.761719 36.726562 14.953125 C 36.65625 15.390625 36.671875 15.421875 37.597656 16.585938 C 37.742188 16.765625 37.722656 16.898438 37.527344 17.023438 C 37.277344 17.1875 37.207031 17.257812 37.230469 17.3125 C 37.242188 17.34375 37.285156 17.4375 37.320312 17.523438 C 37.375 17.648438 37.375 17.699219 37.332031 17.785156 C 37.292969 17.859375 37.292969 17.925781 37.324219 18.011719 C 37.359375 18.101562 37.355469 18.152344 37.3125 18.210938 C 37.089844 18.515625 37.082031 18.542969 37.105469 18.769531 C 37.167969 19.289062 37.066406 19.363281 36.222656 19.398438 C 35.671875 19.425781 35.578125 19.4375 35.378906 19.542969 C 35.144531 19.664062 34.976562 19.84375 34.769531 20.195312 C 34.699219 20.3125 34.625 20.40625 34.601562 20.40625 C 34.476562 20.40625 34.007812 20.105469 33.800781 19.886719 C 33.511719 19.589844 33.363281 19.339844 33.21875 18.925781 C 32.988281 18.277344 32.988281 17.765625 33.207031 17.21875 L 33.320312 16.949219 L 33.195312 17.039062 C 32.738281 17.355469 32.488281 17.933594 32.488281 18.65625 C 32.488281 19.128906 32.582031 19.503906 32.78125 19.886719 C 33.277344 20.820312 34.398438 21.246094 35.429688 20.882812 C 35.691406 20.792969 36.324219 20.378906 36.277344 20.335938 C 36.261719 20.324219 36.152344 20.339844 36.027344 20.378906 C 35.90625 20.414062 35.800781 20.433594 35.800781 20.414062 C 35.800781 20.398438 35.921875 20.320312 36.0625 20.238281 C 36.199219 20.160156 36.703125 19.808594 37.175781 19.457031 C 38.246094 18.664062 38.421875 18.550781 38.789062 18.429688 C 38.953125 18.371094 39.140625 18.277344 39.210938 18.214844 C 39.328125 18.101562 39.417969 17.890625 39.367188 17.839844 C 39.351562 17.820312 39.03125 17.894531 38.648438 18 C 37.957031 18.1875 37.757812 18.210938 38.109375 18.050781 C 38.679688 17.804688 39.410156 17.449219 39.441406 17.410156 C 39.457031 17.386719 39.507812 17.257812 39.542969 17.125 C 39.582031 16.992188 39.625 16.863281 39.636719 16.832031 C 39.648438 16.796875 39.609375 16.792969 39.484375 16.824219 C 39.179688 16.894531 39.074219 16.863281 39.320312 16.773438 C 39.679688 16.652344 39.71875 16.617188 39.78125 16.402344 C 39.8125 16.292969 39.828125 16.199219 39.820312 16.1875 C 39.777344 16.152344 38.878906 16.300781 38.542969 16.398438 C 38.339844 16.460938 38.164062 16.5 38.152344 16.496094 C 38.144531 16.484375 38.210938 16.363281 38.304688 16.226562 C 38.515625 15.898438 38.710938 15.367188 38.746094 15.011719 C 38.816406 14.34375 38.476562 13.433594 37.996094 13 C 37.730469 12.761719 37.699219 12.765625 37.816406 13.03125 C 38.167969 13.792969 38.101562 14.746094 37.664062 15.203125 C 37.445312 15.421875 37.359375 15.425781 37.503906 15.203125 C 37.910156 14.566406 37.945312 13.453125 37.582031 12.722656 C 37.320312 12.179688 36.660156 11.753906 36.023438 11.714844 C 35.472656 11.671875 35.054688 11.816406 34.484375 12.234375 C 34.234375 12.417969 33.816406 12.640625 33.789062 12.605469 C 33.765625 12.582031 34.28125 12.082031 34.476562 11.925781 C 34.683594 11.769531 34.972656 11.648438 35.210938 11.625 C 35.34375 11.613281 35.449219 11.585938 35.449219 11.570312 C 35.449219 11.546875 35.351562 11.519531 35.226562 11.503906 C 35.109375 11.484375 35.007812 11.460938 35.007812 11.4375 C 35.007812 11.398438 35.339844 11.351562 35.597656 11.351562 C 35.828125 11.351562 36.242188 11.453125 36.554688 11.589844 L 36.796875 11.699219 L 36.585938 11.503906 C 36.304688 11.25 35.8125 11.007812 35.449219 10.953125 C 35.144531 10.902344 34.75 10.929688 34.441406 11.023438 L 34.25 11.078125 L 34.277344 10.949219 C 34.3125 10.804688 34.320312 10.808594 33.914062 10.898438 C 33.769531 10.933594 33.789062 10.886719 34.027344 10.660156 C 34.144531 10.546875 34.296875 10.355469 34.363281 10.242188 C 34.5 10.015625 34.671875 9.539062 34.710938 9.28125 L 34.738281 9.109375 L 34.550781 9.261719 C 34.242188 9.511719 34.003906 9.613281 33.640625 9.636719 C 33.332031 9.65625 33.3125 9.652344 33.347656 9.574219 C 33.554688 9.09375 33.660156 8.636719 33.566406 8.636719 C 33.546875 8.636719 33.457031 8.707031 33.359375 8.796875 C 33.121094 9.015625 32.769531 9.15625 32.433594 9.191406 C 32.082031 9.222656 31.914062 9.175781 31.449219 8.898438 C 30.976562 8.621094 30.5 8.523438 29.933594 8.597656 Z M 32.996094 10.675781 C 33.03125 10.765625 33.0625 10.847656 33.0625 10.859375 C 33.0625 10.914062 32.4375 10.820312 32.199219 10.730469 L 31.933594 10.628906 L 32.347656 10.597656 C 32.570312 10.585938 32.769531 10.558594 32.785156 10.546875 C 32.851562 10.480469 32.933594 10.53125 32.996094 10.675781 Z M 34.167969 11.726562 C 34.058594 11.835938 33.914062 11.953125 33.847656 11.988281 C 33.714844 12.058594 33.460938 12.070312 33.460938 12.011719 C 33.460938 11.925781 33.824219 11.664062 34.027344 11.597656 C 34.351562 11.488281 34.375 11.511719 34.167969 11.726562 Z M 24.257812 15.601562 C 24.328125 15.671875 24.324219 15.878906 24.246094 16.03125 C 24.167969 16.175781 23.78125 16.511719 23.5625 16.621094 C 23.433594 16.6875 22.957031 16.863281 22.910156 16.863281 C 22.90625 16.863281 22.894531 16.804688 22.894531 16.738281 C 22.894531 16.554688 23.109375 16.167969 23.324219 15.953125 C 23.632812 15.644531 24.121094 15.46875 24.257812 15.601562 Z M 33.769531 15.632812 C 33.769531 15.671875 33.335938 15.96875 33.261719 15.980469 C 33.140625 16 33.242188 15.882812 33.460938 15.75 C 33.722656 15.589844 33.769531 15.570312 33.769531 15.632812 Z M 28.113281 20.609375 C 27.792969 22.230469 27.660156 22.816406 27.515625 23.273438 C 27.351562 23.789062 27.15625 24.140625 27.019531 24.175781 C 26.585938 24.292969 26.402344 23.425781 26.671875 22.535156 C 26.8125 22.074219 27.164062 21.359375 27.539062 20.800781 C 27.863281 20.304688 28.199219 19.867188 28.230469 19.894531 C 28.238281 19.90625 28.1875 20.226562 28.113281 20.609375 Z M 28.113281 20.609375 "/>
<path style=" stroke:none;fill-rule:nonzero;fill:rgb(0%,0%,0%);fill-opacity:1;" d="M 37.570312 9.457031 C 37.351562 9.53125 37.253906 9.59375 37.285156 9.644531 C 37.296875 9.660156 37.269531 9.675781 37.230469 9.671875 C 37.1875 9.671875 37.101562 9.753906 37.023438 9.878906 C 36.898438 10.078125 36.886719 10.128906 36.886719 10.46875 C 36.886719 10.882812 36.933594 11.007812 37.203125 11.335938 C 37.359375 11.519531 37.714844 11.789062 37.808594 11.789062 C 37.835938 11.78125 37.8125 11.761719 37.761719 11.730469 C 37.15625 11.398438 36.828125 10.421875 37.15625 9.929688 C 37.191406 9.875 37.203125 9.820312 37.1875 9.800781 C 37.164062 9.785156 37.171875 9.773438 37.195312 9.78125 C 37.222656 9.789062 37.355469 9.738281 37.496094 9.671875 C 37.703125 9.570312 37.789062 9.546875 37.96875 9.566406 C 38.511719 9.617188 39.015625 10.28125 38.992188 10.914062 C 38.984375 11.257812 38.96875 11.390625 38.9375 11.367188 C 38.917969 11.359375 38.875 11.398438 38.835938 11.460938 C 38.746094 11.589844 38.601562 11.691406 38.375 11.769531 C 38.234375 11.816406 38.230469 11.828125 38.328125 11.832031 C 38.503906 11.832031 38.582031 11.941406 39.015625 12.75 C 39.074219 12.859375 39.144531 12.984375 39.175781 13.035156 C 39.207031 13.082031 39.367188 13.363281 39.527344 13.65625 C 39.695312 13.953125 39.851562 14.195312 39.875 14.195312 C 39.898438 14.195312 39.90625 14.171875 39.890625 14.148438 C 39.878906 14.125 39.894531 14.105469 39.929688 14.105469 C 39.984375 14.105469 40 14.148438 40 14.269531 L 40.007812 14.433594 L 40.113281 14.3125 C 40.242188 14.167969 40.253906 14.019531 40.152344 13.859375 C 40.089844 13.773438 40.066406 13.765625 40.007812 13.808594 C 39.945312 13.859375 39.945312 13.855469 39.996094 13.792969 C 40.046875 13.726562 40.042969 13.695312 39.953125 13.585938 C 39.894531 13.511719 39.738281 13.296875 39.605469 13.105469 C 39.472656 12.910156 39.351562 12.761719 39.335938 12.777344 C 39.316406 12.785156 39.285156 12.773438 39.269531 12.746094 C 39.25 12.710938 39.253906 12.707031 39.285156 12.722656 C 39.378906 12.78125 39.34375 12.710938 39.113281 12.363281 C 38.746094 11.824219 38.753906 11.890625 39.125 12.507812 C 39.238281 12.691406 39.222656 12.800781 39.113281 12.628906 C 39.058594 12.554688 39 12.488281 38.972656 12.488281 C 38.945312 12.488281 38.9375 12.472656 38.953125 12.460938 C 38.984375 12.429688 38.65625 11.925781 38.5625 11.847656 C 38.511719 11.8125 38.5625 11.757812 38.789062 11.59375 C 38.945312 11.484375 39.09375 11.339844 39.117188 11.28125 C 39.183594 11.113281 39.171875 10.640625 39.09375 10.425781 C 39.007812 10.183594 38.769531 9.808594 38.714844 9.84375 C 38.695312 9.859375 38.679688 9.84375 38.683594 9.8125 C 38.703125 9.738281 38.347656 9.480469 38.152344 9.425781 C 37.933594 9.367188 37.808594 9.371094 37.570312 9.457031 Z M 37.570312 9.457031 "/>
<path style=" stroke:none;fill-rule:nonzero;fill:rgb(0%,0%,0%);fill-opacity:1;" d="M 44.921875 9.496094 C 44.847656 9.535156 44.726562 9.648438 44.65625 9.746094 C 44.589844 9.84375 44.519531 9.9375 44.496094 9.941406 C 44.480469 9.949219 44.476562 9.972656 44.484375 9.988281 C 44.496094 10.007812 44.390625 9.984375 44.253906 9.9375 C 43.894531 9.820312 43.609375 9.847656 43.351562 10.03125 C 43.085938 10.222656 42.917969 10.527344 42.921875 10.808594 C 42.921875 10.988281 42.996094 11.28125 43.003906 11.15625 C 43.007812 11.136719 43.039062 11.148438 43.082031 11.179688 C 43.148438 11.234375 43.148438 11.230469 43.097656 11.136719 C 43.019531 10.992188 43.023438 10.664062 43.109375 10.476562 C 43.320312 9.988281 43.898438 9.8125 44.335938 10.097656 C 44.566406 10.25 44.6875 10.492188 44.6875 10.804688 C 44.6875 11.226562 44.441406 11.523438 44 11.628906 L 43.738281 11.691406 L 43.925781 11.695312 C 44.128906 11.699219 44.386719 11.613281 44.527344 11.488281 C 44.660156 11.371094 44.820312 10.996094 44.820312 10.796875 C 44.820312 10.703125 44.769531 10.480469 44.710938 10.304688 C 44.648438 10.128906 44.609375 9.949219 44.621094 9.90625 C 44.667969 9.757812 44.832031 9.589844 45.015625 9.507812 C 45.117188 9.464844 45.164062 9.425781 45.128906 9.425781 C 45.09375 9.425781 45 9.460938 44.921875 9.496094 Z M 44.921875 9.496094 "/>
<path style=" stroke:none;fill-rule:nonzero;fill:rgb(0%,0%,0%);fill-opacity:1;" d="M 43.253906 11.449219 C 43.273438 11.5 43.1875 11.660156 43.003906 11.925781 C 42.851562 12.152344 42.730469 12.355469 42.730469 12.386719 C 42.730469 12.417969 42.71875 12.433594 42.707031 12.421875 C 42.6875 12.40625 42.542969 12.59375 42.410156 12.800781 C 42.386719 12.84375 42.28125 12.996094 42.179688 13.144531 C 42.074219 13.292969 42.003906 13.4375 42.023438 13.46875 C 42.035156 13.492188 42.035156 13.503906 42.011719 13.484375 C 41.964844 13.441406 41.632812 13.886719 41.667969 13.945312 C 41.679688 13.96875 41.675781 13.976562 41.65625 13.960938 C 41.632812 13.949219 41.535156 14.019531 41.4375 14.113281 C 41.339844 14.210938 41.117188 14.359375 40.9375 14.449219 C 40.761719 14.53125 40.582031 14.652344 40.535156 14.714844 C 40.429688 14.867188 40.34375 15.144531 40.382812 15.203125 C 40.398438 15.234375 40.394531 15.242188 40.367188 15.230469 C 40.335938 15.207031 40.210938 15.550781 40.058594 16.074219 C 40.046875 16.109375 40.082031 16.070312 40.132812 15.984375 C 40.3125 15.695312 40.535156 15.625 40.882812 15.746094 L 41.0625 15.808594 L 41.199219 15.535156 C 41.277344 15.386719 41.410156 15.140625 41.496094 14.980469 C 41.578125 14.824219 41.746094 14.507812 41.867188 14.28125 C 41.992188 14.054688 42.105469 13.84375 42.125 13.820312 C 42.214844 13.695312 42.875 12.398438 42.84375 12.398438 C 42.828125 12.398438 42.832031 12.382812 42.863281 12.363281 C 42.890625 12.347656 43.003906 12.164062 43.113281 11.960938 C 43.292969 11.625 43.324219 11.589844 43.4375 11.597656 C 43.550781 11.609375 43.550781 11.605469 43.472656 11.558594 C 43.421875 11.535156 43.347656 11.480469 43.304688 11.445312 C 43.234375 11.386719 43.226562 11.386719 43.253906 11.449219 Z M 41.039062 14.894531 C 41.191406 14.949219 41.300781 15.195312 41.238281 15.351562 C 41.183594 15.5 40.933594 15.609375 40.78125 15.554688 C 40.652344 15.5 40.53125 15.34375 40.53125 15.222656 C 40.53125 15.105469 40.652344 14.941406 40.769531 14.894531 C 40.894531 14.839844 40.90625 14.839844 41.039062 14.894531 Z M 41.039062 14.894531 "/>
<path style=" stroke:none;fill-rule:nonzero;fill:rgb(0%,0%,0%);fill-opacity:1;" d="M 40.902344 15.078125 C 40.917969 15.121094 40.902344 15.164062 40.875 15.183594 C 40.847656 15.199219 40.839844 15.195312 40.859375 15.164062 C 40.875 15.132812 40.867188 15.113281 40.847656 15.113281 C 40.785156 15.113281 40.785156 15.214844 40.847656 15.273438 C 40.902344 15.332031 41.019531 15.300781 41.019531 15.226562 C 41.019531 15.195312 40.988281 15.132812 40.949219 15.085938 C 40.890625 15.015625 40.882812 15.015625 40.902344 15.078125 Z M 40.902344 15.078125 "/>
<path style=" stroke:none;fill-rule:nonzero;fill:rgb(0%,0%,0%);fill-opacity:1;" d="M 43.617188 11.644531 C 43.648438 11.65625 43.6875 11.652344 43.703125 11.640625 C 43.71875 11.625 43.691406 11.613281 43.644531 11.617188 C 43.59375 11.617188 43.582031 11.628906 43.617188 11.644531 Z M 43.617188 11.644531 "/>
<path style=" stroke:none;fill-rule:nonzero;fill:rgb(0%,0%,0%);fill-opacity:1;" d="M 43.058594 12.324219 C 42.878906 12.667969 42.617188 13.160156 42.476562 13.429688 C 41.722656 14.84375 41.597656 15.085938 41.609375 15.097656 C 41.628906 15.121094 41.773438 14.871094 42.058594 14.347656 C 42.171875 14.128906 42.347656 13.816406 42.445312 13.648438 C 42.542969 13.480469 42.621094 13.320312 42.621094 13.289062 C 42.621094 13.257812 42.640625 13.230469 42.660156 13.230469 C 42.675781 13.230469 42.800781 13.019531 42.933594 12.757812 C 43.070312 12.5 43.246094 12.167969 43.332031 12.019531 C 43.472656 11.777344 43.488281 11.699219 43.410156 11.699219 C 43.394531 11.699219 43.238281 11.980469 43.058594 12.324219 Z M 43.058594 12.324219 "/>
<path style=" stroke:none;fill-rule:nonzero;fill:rgb(0%,0%,0%);fill-opacity:1;" d="M 40.347656 14.230469 C 40.179688 14.425781 40.125 14.558594 40.15625 14.703125 C 40.167969 14.785156 40.199219 14.839844 40.226562 14.828125 C 40.25 14.8125 40.265625 14.828125 40.269531 14.859375 C 40.269531 14.890625 40.300781 14.855469 40.332031 14.78125 C 40.367188 14.707031 40.464844 14.582031 40.550781 14.507812 L 40.703125 14.378906 L 40.558594 14.265625 C 40.421875 14.160156 40.402344 14.160156 40.347656 14.230469 Z M 40.347656 14.230469 "/>
<path style=" stroke:none;fill-rule:nonzero;fill:rgb(0%,0%,0%);fill-opacity:1;" d="M 19.257812 14.328125 C 18.984375 14.488281 18.992188 15.199219 19.273438 15.199219 C 19.546875 15.199219 19.679688 14.46875 19.433594 14.316406 C 19.367188 14.273438 19.355469 14.273438 19.257812 14.328125 Z M 19.257812 14.328125 "/>
<path style=" stroke:none;fill-rule:nonzero;fill:rgb(0%,0%,0%);fill-opacity:1;" d="M 35.949219 14.71875 C 36.089844 14.761719 36.230469 14.824219 36.265625 14.851562 C 36.320312 14.894531 36.332031 14.890625 36.332031 14.835938 C 36.332031 14.757812 36.160156 14.6875 35.890625 14.65625 L 35.691406 14.636719 Z M 35.949219 14.71875 "/>
<path style=" stroke:none;fill-rule:nonzero;fill:rgb(0%,0%,0%);fill-opacity:1;" d="M 41.394531 15.460938 C 41.308594 15.628906 41.25 15.769531 41.261719 15.769531 C 41.269531 15.769531 41.355469 15.628906 41.4375 15.460938 C 41.523438 15.292969 41.585938 15.15625 41.570312 15.15625 C 41.5625 15.15625 41.476562 15.292969 41.394531 15.460938 Z M 41.394531 15.460938 "/>
<path style=" stroke:none;fill-rule:nonzero;fill:rgb(0%,0%,0%);fill-opacity:1;" d="M 27.722656 15.605469 C 27.523438 15.894531 27.140625 16.601562 27.140625 16.675781 C 27.140625 16.722656 27.355469 16.507812 27.660156 16.148438 C 27.917969 15.847656 27.96875 15.808594 28.070312 15.828125 C 28.171875 15.847656 28.199219 15.828125 28.265625 15.679688 C 28.339844 15.519531 28.339844 15.5 28.269531 15.398438 C 28.222656 15.324219 28.160156 15.289062 28.066406 15.289062 C 27.957031 15.289062 27.910156 15.332031 27.722656 15.605469 Z M 27.722656 15.605469 "/>
<path style=" stroke:none;fill-rule:nonzero;fill:rgb(0%,0%,0%);fill-opacity:1;" d="M 36.089844 15.484375 C 36.019531 15.519531 35.859375 15.550781 35.738281 15.550781 C 35.617188 15.550781 35.457031 15.582031 35.382812 15.617188 C 35.253906 15.671875 35.257812 15.671875 35.558594 15.6875 C 36.019531 15.703125 36.121094 15.6875 36.230469 15.585938 C 36.410156 15.417969 36.34375 15.371094 36.089844 15.484375 Z M 36.089844 15.484375 "/>
<path style=" stroke:none;fill-rule:nonzero;fill:rgb(0%,0%,0%);fill-opacity:1;" d="M 41.53125 15.554688 C 41.488281 15.625 41.464844 15.714844 41.476562 15.75 C 41.492188 15.785156 41.488281 15.808594 41.464844 15.796875 C 41.445312 15.78125 41.390625 15.847656 41.335938 15.933594 L 41.242188 16.101562 L 41.621094 16.238281 C 41.828125 16.3125 41.988281 16.351562 41.976562 16.320312 C 41.96875 16.292969 41.894531 16.078125 41.820312 15.84375 C 41.738281 15.609375 41.660156 15.417969 41.640625 15.417969 C 41.625 15.417969 41.574219 15.480469 41.53125 15.554688 Z M 41.53125 15.554688 "/>
<path style=" stroke:none;fill-rule:nonzero;fill:rgb(0%,0%,0%);fill-opacity:1;" d="M 19.078125 15.621094 C 18.953125 15.742188 18.988281 15.8125 19.183594 15.8125 C 19.308594 15.8125 19.359375 15.796875 19.359375 15.75 C 19.359375 15.679688 19.246094 15.550781 19.183594 15.550781 C 19.160156 15.550781 19.113281 15.582031 19.078125 15.621094 Z M 19.078125 15.621094 "/>
<path style=" stroke:none;fill-rule:nonzero;fill:rgb(0%,0%,0%);fill-opacity:1;" d="M 40.511719 15.855469 C 40.523438 15.878906 40.511719 15.886719 40.476562 15.875 C 40.378906 15.839844 40.234375 16.015625 40.128906 16.289062 C 39.847656 17.046875 39.199219 18.910156 39.1875 18.992188 C 39.1875 19.046875 39.175781 19.078125 39.160156 19.066406 C 39.148438 19.050781 38.777344 20.035156 38.671875 20.378906 C 38.621094 20.546875 38.644531 20.519531 38.804688 20.214844 C 38.878906 20.074219 38.925781 19.9375 38.910156 19.910156 C 38.898438 19.890625 38.90625 19.882812 38.933594 19.898438 C 38.957031 19.917969 39.035156 19.824219 39.109375 19.675781 C 39.183594 19.535156 39.34375 19.234375 39.46875 19.007812 C 39.972656 18.078125 40.972656 16.046875 40.972656 15.964844 C 40.972656 15.925781 40.679688 15.8125 40.578125 15.8125 C 40.523438 15.8125 40.496094 15.828125 40.511719 15.855469 Z M 40.28125 16.140625 C 40.265625 16.179688 40.246094 16.203125 40.234375 16.1875 C 40.222656 16.175781 40.226562 16.148438 40.246094 16.125 C 40.285156 16.054688 40.3125 16.066406 40.28125 16.140625 Z M 40.28125 16.140625 "/>
<path style=" stroke:none;fill-rule:nonzero;fill:rgb(0%,0%,0%);fill-opacity:1;" d="M 22.164062 16.199219 C 21.203125 16.804688 20.285156 17.460938 19.335938 18.214844 C 19.09375 18.410156 18.890625 18.550781 18.882812 18.53125 C 18.878906 18.511719 18.941406 18.132812 19.023438 17.6875 C 19.1875 16.8125 19.289062 16.207031 19.261719 16.1875 C 19.253906 16.183594 19.167969 16.191406 19.066406 16.214844 L 18.886719 16.253906 L 18.695312 17.027344 C 18.59375 17.453125 18.417969 18.109375 18.3125 18.480469 L 18.117188 19.160156 L 17.613281 19.632812 C 16.8125 20.378906 16.164062 21.238281 15.785156 22.039062 C 15.292969 23.078125 15.164062 24.246094 15.476562 24.878906 C 15.6875 25.3125 16.140625 25.394531 16.535156 25.078125 C 16.976562 24.714844 17.964844 22.132812 18.570312 19.734375 L 18.753906 18.996094 L 19.28125 18.582031 C 20.363281 17.730469 21.308594 17.0625 22.089844 16.605469 C 22.371094 16.4375 22.425781 16.382812 22.558594 16.136719 C 22.640625 15.984375 22.707031 15.855469 22.703125 15.855469 C 22.703125 15.859375 22.457031 16.007812 22.164062 16.199219 Z M 17.835938 20.128906 C 17.347656 21.746094 16.34375 24.339844 16.097656 24.613281 C 15.988281 24.742188 15.921875 24.707031 15.792969 24.460938 C 15.679688 24.246094 15.667969 24.199219 15.671875 23.730469 C 15.679688 23.320312 15.699219 23.152344 15.796875 22.835938 C 16.089844 21.871094 16.667969 20.957031 17.613281 19.976562 C 17.78125 19.796875 17.929688 19.675781 17.9375 19.703125 C 17.945312 19.726562 17.902344 19.921875 17.835938 20.128906 Z M 17.835938 20.128906 "/>
<path style=" stroke:none;fill-rule:nonzero;fill:rgb(0%,0%,0%);fill-opacity:1;" d="M 41.0625 16.074219 C 41.015625 16.171875 40.984375 16.25 40.996094 16.25 C 41.003906 16.25 41.058594 16.171875 41.105469 16.074219 C 41.15625 15.980469 41.1875 15.898438 41.171875 15.898438 C 41.164062 15.898438 41.109375 15.980469 41.0625 16.074219 Z M 41.0625 16.074219 "/>
<path style=" stroke:none;fill-rule:nonzero;fill:rgb(0%,0%,0%);fill-opacity:1;" d="M 19.320312 16.015625 C 19.320312 16.0625 19.332031 16.074219 19.347656 16.039062 C 19.359375 16.007812 19.355469 15.96875 19.34375 15.957031 C 19.328125 15.9375 19.316406 15.964844 19.320312 16.015625 Z M 19.320312 16.015625 "/>
<path style=" stroke:none;fill-rule:nonzero;fill:rgb(0%,0%,0%);fill-opacity:1;" d="M 41.070312 16.402344 C 41 16.5625 40.996094 16.554688 41.207031 16.554688 C 41.464844 16.554688 42.078125 16.714844 42.433594 16.867188 L 42.71875 16.992188 L 42.566406 16.867188 C 42.28125 16.628906 41.492188 16.292969 41.21875 16.292969 C 41.15625 16.292969 41.101562 16.335938 41.070312 16.402344 Z M 41.070312 16.402344 "/>
<path style=" stroke:none;fill-rule:nonzero;fill:rgb(0%,0%,0%);fill-opacity:1;" d="M 40.882812 16.800781 C 40.839844 16.847656 40.773438 16.945312 40.738281 17.019531 L 40.671875 17.152344 L 41.355469 17.203125 C 42.109375 17.261719 42.535156 17.371094 42.957031 17.621094 C 43.378906 17.867188 43.746094 18.328125 43.960938 18.875 L 44.023438 19.027344 L 44.007812 18.832031 C 43.894531 17.78125 42.6875 16.867188 41.261719 16.75 C 40.996094 16.722656 40.941406 16.730469 40.882812 16.800781 Z M 40.882812 16.800781 "/>
<path style=" stroke:none;fill-rule:nonzero;fill:rgb(0%,0%,0%);fill-opacity:1;" d="M 32.488281 17.296875 C 32.125 17.511719 31.855469 17.792969 31.699219 18.121094 C 31.605469 18.328125 31.582031 18.429688 31.582031 18.722656 C 31.585938 19.023438 31.605469 19.109375 31.726562 19.359375 C 31.898438 19.714844 32.191406 20.046875 32.527344 20.269531 C 32.753906 20.417969 33.042969 20.582031 33.09375 20.582031 C 33.105469 20.582031 32.996094 20.453125 32.851562 20.296875 C 32.558594 19.976562 32.296875 19.503906 32.21875 19.140625 C 32.191406 19.011719 32.179688 18.726562 32.1875 18.507812 C 32.199219 18.175781 32.226562 18.0625 32.347656 17.8125 C 32.421875 17.648438 32.558594 17.425781 32.648438 17.320312 C 32.734375 17.210938 32.800781 17.125 32.792969 17.125 C 32.785156 17.125 32.648438 17.203125 32.488281 17.296875 Z M 32.488281 17.296875 "/>
<path style=" stroke:none;fill-rule:nonzero;fill:rgb(0%,0%,0%);fill-opacity:1;" d="M 41.527344 17.480469 C 41.570312 17.5625 41.644531 17.683594 41.699219 17.757812 C 41.746094 17.828125 41.828125 17.960938 41.871094 18.042969 C 41.914062 18.125 41.972656 18.226562 42.003906 18.265625 C 42.050781 18.332031 42.832031 18.757812 42.855469 18.734375 C 42.878906 18.707031 42.46875 17.628906 42.417969 17.578125 C 42.371094 17.53125 41.988281 17.425781 41.625 17.359375 L 41.453125 17.332031 Z M 41.527344 17.480469 "/>
<path style=" stroke:none;fill-rule:nonzero;fill:rgb(0%,0%,0%);fill-opacity:1;" d="M 40.265625 17.875 C 40.234375 17.921875 40.222656 17.96875 40.230469 17.976562 C 40.242188 17.988281 40.523438 18.023438 40.863281 18.066406 C 41.203125 18.105469 41.523438 18.144531 41.570312 18.15625 C 41.8125 18.214844 41.289062 17.992188 41.007812 17.917969 C 40.460938 17.773438 40.324219 17.765625 40.265625 17.875 Z M 40.265625 17.875 "/>
<path style=" stroke:none;fill-rule:nonzero;fill:rgb(0%,0%,0%);fill-opacity:1;" d="M 40.042969 18.351562 C 39.972656 18.390625 39.84375 18.644531 39.875 18.671875 C 39.882812 18.683594 39.992188 18.671875 40.113281 18.65625 C 40.476562 18.59375 41.261719 18.609375 41.613281 18.679688 C 42.050781 18.769531 42.484375 18.949219 42.855469 19.195312 C 43.140625 19.378906 43.644531 19.855469 43.886719 20.164062 L 43.988281 20.296875 L 43.914062 20.164062 C 43.609375 19.648438 43.089844 19.097656 42.652344 18.824219 C 42.339844 18.625 41.90625 18.453125 41.503906 18.371094 C 41.15625 18.296875 40.15625 18.285156 40.042969 18.351562 Z M 40.042969 18.351562 "/>
<path style=" stroke:none;fill-rule:nonzero;fill:rgb(0%,0%,0%);fill-opacity:1;" d="M 38.730469 18.679688 C 38.210938 18.921875 37.90625 19.15625 37.183594 19.855469 C 36.804688 20.21875 36.398438 20.589844 36.28125 20.675781 C 35.828125 21.015625 35.390625 21.148438 34.757812 21.148438 C 33.238281 21.148438 31.917969 20.4375 31.378906 19.320312 C 31.304688 19.167969 31.230469 19.050781 31.222656 19.0625 C 31.214844 19.070312 31.222656 19.273438 31.25 19.507812 C 31.40625 20.964844 31.882812 21.59375 33.128906 21.945312 C 33.644531 22.089844 34.574219 22.089844 35.050781 21.941406 C 35.832031 21.703125 36.214844 21.441406 37.171875 20.503906 C 37.980469 19.707031 38.382812 19.359375 38.722656 19.167969 C 38.914062 19.058594 39.066406 18.859375 39.140625 18.621094 C 39.179688 18.484375 39.109375 18.496094 38.730469 18.679688 Z M 38.730469 18.679688 "/>
<path style=" stroke:none;fill-rule:nonzero;fill:rgb(0%,0%,0%);fill-opacity:1;" d="M 40.199219 18.792969 C 40.03125 18.8125 39.851562 18.847656 39.804688 18.871094 C 39.71875 18.90625 39.445312 19.347656 39.484375 19.382812 C 39.492188 19.394531 39.640625 19.371094 39.808594 19.328125 C 40.222656 19.230469 41.15625 19.226562 41.574219 19.320312 C 42.230469 19.46875 42.878906 19.796875 43.484375 20.285156 C 43.667969 20.429688 43.816406 20.539062 43.828125 20.527344 C 43.871094 20.484375 43.382812 19.824219 43.171875 19.640625 C 42.4375 18.996094 41.242188 18.65625 40.199219 18.792969 Z M 40.199219 18.792969 "/>
<path style=" stroke:none;fill-rule:nonzero;fill:rgb(0%,0%,0%);fill-opacity:1;" d="M 38.035156 20.113281 C 37.554688 20.59375 37.121094 20.988281 36.941406 21.101562 C 36.773438 21.210938 36.640625 21.304688 36.640625 21.308594 C 36.640625 21.332031 36.996094 21.195312 37.242188 21.070312 C 37.726562 20.832031 38.519531 20.179688 38.664062 19.910156 C 38.757812 19.71875 38.898438 19.3125 38.863281 19.3125 C 38.84375 19.3125 38.472656 19.671875 38.035156 20.113281 Z M 38.035156 20.113281 "/>
<path style=" stroke:none;fill-rule:nonzero;fill:rgb(0%,0%,0%);fill-opacity:1;" d="M 43.1875 20.253906 C 43.234375 20.367188 43.554688 20.882812 43.574219 20.867188 C 43.621094 20.820312 43.4375 20.453125 43.3125 20.335938 C 43.234375 20.265625 43.179688 20.226562 43.1875 20.253906 Z M 43.1875 20.253906 "/>
<path style=" stroke:none;fill-rule:nonzero;fill:rgb(0%,0%,0%);fill-opacity:1;" d="M 8.683594 23.117188 C 8.023438 23.207031 7.726562 23.476562 7.601562 24.113281 C 7.523438 24.515625 7.5625 25.648438 7.667969 25.980469 C 7.796875 26.371094 8.070312 26.617188 8.464844 26.691406 C 8.738281 26.75 9.710938 26.753906 9.992188 26.707031 C 10.328125 26.648438 10.335938 26.640625 10.308594 26.214844 L 10.289062 25.96875 L 10.085938 25.996094 C 9.972656 26.015625 9.648438 26.027344 9.371094 26.027344 C 8.53125 26.027344 8.4375 25.921875 8.4375 24.933594 C 8.433594 24.292969 8.488281 24.074219 8.675781 23.933594 C 8.789062 23.847656 8.863281 23.839844 9.363281 23.839844 C 9.671875 23.839844 10.011719 23.847656 10.121094 23.863281 L 10.320312 23.882812 L 10.308594 23.5625 C 10.296875 23.382812 10.285156 23.21875 10.277344 23.207031 C 10.222656 23.125 9.097656 23.0625 8.683594 23.117188 Z M 8.683594 23.117188 "/>
<path style=" stroke:none;fill-rule:nonzero;fill:rgb(0%,0%,0%);fill-opacity:1;" d="M 12.089844 23.105469 C 11.640625 23.140625 11.242188 23.316406 11.03125 23.570312 C 10.964844 23.648438 10.921875 23.746094 10.933594 23.789062 C 10.945312 23.828125 10.933594 23.855469 10.917969 23.839844 C 10.894531 23.828125 10.867188 23.855469 10.855469 23.894531 C 10.699219 24.425781 10.707031 25.550781 10.863281 25.960938 C 11 26.308594 11.203125 26.507812 11.5625 26.644531 C 11.886719 26.765625 13.085938 26.761719 13.4375 26.640625 C 13.570312 26.59375 13.675781 26.53125 13.671875 26.5 C 13.667969 26.472656 13.695312 26.457031 13.738281 26.460938 C 13.824219 26.464844 14.078125 26.105469 14.152344 25.863281 C 14.1875 25.742188 14.210938 25.402344 14.210938 24.914062 C 14.210938 24.230469 14.199219 24.121094 14.113281 23.890625 C 14.054688 23.746094 13.96875 23.582031 13.914062 23.519531 C 13.589844 23.183594 12.9375 23.03125 12.089844 23.105469 Z M 12.996094 23.917969 C 13.078125 23.945312 13.167969 23.964844 13.183594 23.957031 C 13.207031 23.953125 13.210938 23.964844 13.199219 23.984375 C 13.183594 24.007812 13.214844 24.101562 13.265625 24.195312 C 13.335938 24.339844 13.347656 24.464844 13.351562 24.875 C 13.359375 25.632812 13.285156 25.824219 12.972656 25.941406 C 12.714844 26.042969 12.089844 26.015625 11.917969 25.90625 C 11.6875 25.757812 11.648438 25.640625 11.632812 25.042969 C 11.617188 24.421875 11.664062 24.164062 11.828125 24.015625 C 12.019531 23.839844 12.605469 23.796875 12.996094 23.917969 Z M 12.996094 23.917969 "/>
<path style=" stroke:none;fill-rule:nonzero;fill:rgb(0%,0%,0%);fill-opacity:1;" d="M 14.851562 24.90625 L 14.851562 26.707031 L 15.734375 26.707031 L 15.734375 26.070312 C 15.734375 25.550781 15.722656 25.4375 15.671875 25.4375 C 15.636719 25.4375 15.535156 25.371094 15.453125 25.289062 C 15.363281 25.210938 15.28125 25.15625 15.265625 25.171875 C 15.25 25.183594 15.246094 25.175781 15.261719 25.152344 C 15.277344 25.125 15.25 25 15.207031 24.867188 C 15.082031 24.523438 15.089844 23.882812 15.21875 23.1875 C 15.222656 23.164062 15.148438 23.136719 15.042969 23.128906 L 14.851562 23.113281 Z M 14.851562 24.90625 "/>
<path style=" stroke:none;fill-rule:nonzero;fill:rgb(0%,0%,0%);fill-opacity:1;" d="M 17.460938 23.785156 C 17.332031 24.101562 17.140625 24.535156 17.035156 24.746094 C 16.933594 24.953125 16.855469 25.136719 16.867188 25.148438 C 16.875 25.160156 16.871094 25.167969 16.855469 25.152344 C 16.839844 25.140625 16.800781 25.167969 16.769531 25.210938 C 16.726562 25.261719 16.710938 25.484375 16.707031 26.042969 L 16.707031 26.796875 L 17.140625 26.785156 L 17.570312 26.773438 L 17.582031 26.125 L 17.597656 25.480469 L 19.226562 25.480469 L 19.226562 24.78125 L 17.59375 24.78125 L 17.59375 23.882812 L 18.476562 23.898438 L 19.363281 23.910156 L 19.351562 23.570312 L 19.335938 23.226562 L 18.515625 23.214844 L 17.6875 23.207031 Z M 17.460938 23.785156 "/>
<path style=" stroke:none;fill-rule:nonzero;fill:rgb(0%,0%,0%);fill-opacity:1;" d="M 19.800781 25 L 19.800781 26.792969 L 20.679688 26.792969 L 20.695312 26.144531 L 20.707031 25.503906 L 21.539062 25.488281 L 22.367188 25.480469 L 22.367188 24.78125 L 20.6875 24.78125 L 20.6875 23.90625 L 22.453125 23.90625 L 22.453125 23.207031 L 19.800781 23.207031 Z M 19.800781 25 "/>
<path style=" stroke:none;fill-rule:nonzero;fill:rgb(0%,0%,0%);fill-opacity:1;" d="M 22.953125 24.570312 C 22.964844 25.585938 22.984375 25.984375 23.027344 26.109375 C 23.117188 26.347656 23.417969 26.667969 23.566406 26.675781 C 23.628906 26.679688 23.675781 26.699219 23.664062 26.710938 C 23.609375 26.808594 24.617188 26.871094 25.039062 26.796875 C 25.527344 26.714844 25.742188 26.5625 25.910156 26.199219 C 26.007812 25.992188 26.011719 25.925781 26.027344 24.59375 L 26.039062 23.203125 L 25.171875 23.226562 L 25.148438 24.496094 C 25.125 25.921875 25.121094 25.953125 24.8125 26.050781 C 24.625 26.117188 24.195312 26.085938 24.039062 26 C 23.984375 25.972656 23.925781 25.945312 23.914062 25.949219 C 23.867188 25.960938 23.863281 25.835938 23.832031 24.519531 L 23.800781 23.226562 L 23.367188 23.214844 L 22.929688 23.203125 Z M 22.953125 24.570312 "/>
<path style=" stroke:none;fill-rule:nonzero;fill:rgb(0%,0%,0%);fill-opacity:1;" d="M 28.492188 23.257812 C 28.484375 23.289062 28.4375 23.445312 28.386719 23.609375 L 28.296875 23.90625 L 28.425781 23.90625 C 28.605469 23.90625 28.863281 24.019531 28.863281 24.097656 C 28.863281 24.136719 28.878906 24.167969 28.902344 24.167969 C 28.925781 24.167969 28.9375 24.285156 28.929688 24.4375 C 28.917969 24.84375 28.855469 24.886719 28.222656 24.914062 C 27.945312 24.925781 27.710938 24.917969 27.699219 24.898438 C 27.695312 24.882812 27.621094 24.898438 27.539062 24.941406 C 27.375 25.023438 27.039062 25.042969 26.910156 24.984375 C 26.835938 24.949219 26.828125 25.003906 26.828125 25.871094 L 26.828125 26.792969 L 27.714844 26.792969 L 27.714844 25.65625 L 27.929688 25.65625 C 28.171875 25.65625 28.214844 25.691406 28.59375 26.277344 C 28.699219 26.445312 28.804688 26.5625 28.832031 26.542969 C 28.859375 26.527344 28.863281 26.539062 28.84375 26.570312 C 28.824219 26.601562 28.84375 26.664062 28.890625 26.710938 C 28.957031 26.785156 29.027344 26.792969 29.445312 26.792969 C 29.707031 26.792969 29.925781 26.78125 29.925781 26.765625 C 29.925781 26.664062 29.460938 26.042969 29.414062 26.085938 C 29.394531 26.101562 29.394531 26.089844 29.410156 26.058594 C 29.433594 26.023438 29.375 25.933594 29.246094 25.804688 C 29.003906 25.570312 28.964844 25.484375 29.097656 25.511719 C 29.160156 25.523438 29.265625 25.480469 29.375 25.398438 C 29.875 25.042969 29.992188 24.074219 29.589844 23.605469 C 29.402344 23.390625 29.234375 23.308594 28.878906 23.25 C 28.542969 23.191406 28.507812 23.199219 28.492188 23.257812 Z M 28.492188 23.257812 "/>
<path style=" stroke:none;fill-rule:nonzero;fill:rgb(0%,0%,0%);fill-opacity:1;" d="M 30.542969 25 L 30.542969 26.792969 L 33.195312 26.792969 L 33.195312 26.09375 L 31.40625 26.09375 L 31.417969 25.808594 C 31.429688 25.613281 31.414062 25.5 31.375 25.449219 C 31.332031 25.398438 31.332031 25.386719 31.375 25.410156 C 31.398438 25.429688 31.425781 25.421875 31.425781 25.398438 C 31.425781 25.367188 31.683594 25.351562 32.199219 25.351562 L 32.972656 25.351562 L 32.972656 24.648438 L 31.425781 24.648438 L 31.425781 23.90625 L 33.199219 23.90625 L 33.1875 23.566406 L 33.171875 23.226562 L 31.859375 23.214844 L 30.542969 23.207031 Z M 30.542969 25 "/>
<path style=" stroke:none;fill-rule:nonzero;fill:rgb(0%,0%,0%);fill-opacity:1;" d="M 22.652344 31.632812 C 18.882812 32 15.378906 33.453125 12.398438 35.890625 C 11.855469 36.332031 10.992188 37.167969 10.652344 37.578125 C 9.183594 39.351562 7.960938 41.75 7.324219 44.097656 C 6.929688 45.539062 6.761719 46.75 6.730469 48.367188 C 6.707031 49.609375 6.75 50.414062 6.894531 51.359375 C 7.472656 55.183594 9.144531 58.503906 11.90625 61.339844 C 15.921875 65.464844 21.953125 67.503906 27.859375 66.738281 C 31.515625 66.261719 34.867188 64.800781 37.679688 62.453125 C 38.179688 62.039062 39.085938 61.125 39.40625 60.722656 C 41.148438 58.5 42.347656 55.859375 42.875 53.109375 C 43.222656 51.28125 43.277344 49.160156 43.023438 47.289062 C 42.800781 45.613281 42.285156 43.882812 41.535156 42.246094 C 41.410156 41.980469 41.285156 41.757812 41.253906 41.757812 C 41.136719 41.757812 40.839844 41.988281 40.8125 42.097656 C 40.792969 42.167969 40.824219 42.320312 40.886719 42.5 C 41.039062 42.945312 40.949219 43.316406 40.613281 43.5625 C 40.457031 43.675781 40.117188 43.707031 39.878906 43.625 C 39.777344 43.589844 39.679688 43.578125 39.664062 43.597656 C 39.652344 43.621094 39.683594 43.636719 39.730469 43.636719 C 39.859375 43.636719 39.851562 43.679688 39.628906 44.066406 C 39.527344 44.25 39.375 44.519531 39.292969 44.664062 C 39.214844 44.808594 39.023438 45.15625 38.871094 45.429688 C 38.71875 45.707031 38.351562 46.367188 38.066406 46.898438 C 37.773438 47.425781 37.496094 47.898438 37.445312 47.945312 C 37.398438 47.996094 37.132812 48.476562 36.855469 49.019531 C 36.578125 49.5625 36.269531 50.140625 36.179688 50.308594 C 36.089844 50.476562 35.949219 50.734375 35.867188 50.878906 C 35.789062 51.023438 35.691406 51.207031 35.652344 51.285156 C 35.480469 51.617188 35.550781 51.335938 35.875 50.4375 C 37.085938 47.007812 37.003906 47.214844 37.191406 47.132812 C 37.296875 47.085938 37.632812 47.144531 37.679688 47.226562 C 37.695312 47.246094 37.671875 47.328125 37.632812 47.410156 C 37.59375 47.488281 37.574219 47.539062 37.597656 47.519531 C 37.648438 47.46875 38.542969 45.769531 38.527344 45.75 C 38.515625 45.742188 38.335938 46.058594 38.128906 46.449219 L 37.742188 47.167969 L 37.578125 47.109375 C 37.492188 47.082031 37.371094 47.054688 37.320312 47.050781 C 37.175781 47.050781 36.96875 47.246094 36.882812 47.464844 C 36.839844 47.574219 36.789062 47.664062 36.765625 47.664062 C 36.738281 47.664062 36.734375 47.628906 36.753906 47.582031 C 36.765625 47.542969 36.859375 47.265625 36.957031 46.960938 C 37.210938 46.167969 37.230469 46.136719 37.601562 45.941406 C 38.007812 45.734375 38.152344 45.566406 38.957031 44.402344 L 39.59375 43.484375 L 39.511719 43.351562 C 39.46875 43.277344 39.410156 43.226562 39.386719 43.230469 C 39.324219 43.25 39.28125 43.078125 39.285156 42.867188 C 39.289062 42.367188 39.824219 41.949219 40.300781 42.070312 C 40.390625 42.09375 40.503906 42.125 40.554688 42.132812 C 40.625 42.148438 40.671875 42.113281 40.753906 41.988281 C 40.820312 41.890625 40.941406 41.785156 41.050781 41.734375 L 41.234375 41.640625 L 41.074219 41.339844 C 40.285156 39.816406 39.011719 38.132812 37.664062 36.816406 C 36.269531 35.460938 34.566406 34.273438 32.773438 33.414062 C 32.480469 33.273438 32.183594 33.136719 32.113281 33.105469 C 32.035156 33.078125 31.867188 33.007812 31.730469 32.945312 C 30.667969 32.480469 28.773438 31.964844 27.40625 31.757812 C 26.046875 31.558594 23.988281 31.5 22.652344 31.632812 Z M 12.742188 39.441406 C 12.773438 39.496094 12.671875 40.035156 12.359375 41.433594 C 12.121094 42.488281 11.921875 43.402344 11.90625 43.460938 C 11.894531 43.523438 11.957031 43.382812 12.042969 43.15625 C 12.53125 41.890625 12.796875 41.375 13.136719 41.046875 C 14.015625 40.1875 14.988281 39.9375 15.824219 40.355469 C 16.425781 40.65625 16.9375 41.335938 17.234375 42.238281 C 17.574219 43.265625 17.640625 44.949219 17.386719 46.253906 C 17.3125 46.652344 17.132812 47.371094 17.066406 47.542969 C 17.039062 47.613281 17.015625 47.675781 17.015625 47.683594 C 17.015625 47.6875 17.246094 47.617188 17.53125 47.527344 C 17.8125 47.429688 18.238281 47.308594 18.472656 47.246094 C 18.707031 47.1875 18.898438 47.117188 18.910156 47.09375 C 18.917969 47.070312 18.960938 47.007812 19.007812 46.953125 C 19.074219 46.871094 19.105469 46.863281 19.167969 46.902344 C 19.273438 46.960938 19.292969 47.179688 19.230469 47.464844 C 19.15625 47.800781 18.878906 49.386719 18.886719 49.394531 C 18.890625 49.402344 19.164062 49.199219 19.492188 48.945312 C 20.257812 48.355469 20.832031 47.953125 21.546875 47.488281 C 21.867188 47.285156 22.222656 47.027344 22.351562 46.917969 C 22.925781 46.402344 23.59375 46.355469 23.820312 46.808594 C 23.894531 46.96875 23.890625 47.214844 23.804688 47.414062 C 23.664062 47.753906 23.09375 48.15625 22.566406 48.296875 C 22.421875 48.332031 22.300781 48.371094 22.285156 48.378906 C 22.238281 48.433594 22.386719 48.726562 22.511719 48.816406 C 22.71875 48.96875 22.9375 49.023438 23.347656 49.023438 C 23.96875 49.023438 24.449219 48.875 25.089844 48.480469 C 25.632812 48.144531 25.769531 48.003906 26.007812 47.535156 C 26.289062 46.980469 26.539062 46.65625 26.675781 46.65625 C 26.835938 46.65625 26.929688 46.773438 26.902344 46.933594 C 26.867188 47.109375 26.789062 47.191406 26.6875 47.15625 C 26.621094 47.136719 26.566406 47.171875 26.464844 47.296875 C 26.386719 47.390625 26.210938 47.582031 26.074219 47.726562 C 25.859375 47.957031 25.675781 48.285156 25.734375 48.34375 C 25.746094 48.355469 25.902344 48.226562 26.082031 48.0625 C 26.265625 47.894531 26.414062 47.761719 26.421875 47.765625 C 26.425781 47.777344 26.382812 47.890625 26.320312 48.027344 C 26.257812 48.15625 26.183594 48.375 26.15625 48.507812 C 26.113281 48.710938 26.117188 48.761719 26.179688 48.855469 C 26.21875 48.917969 26.3125 48.980469 26.382812 48.996094 C 26.734375 49.070312 27.238281 48.59375 27.867188 47.597656 C 28.320312 46.882812 28.726562 46.351562 28.816406 46.351562 C 28.902344 46.351562 28.996094 46.433594 28.996094 46.507812 C 28.996094 46.539062 28.894531 46.722656 28.773438 46.914062 C 28.472656 47.394531 28.15625 48.035156 27.964844 48.539062 C 27.691406 49.269531 27.6875 49.265625 28.160156 48.84375 C 28.640625 48.421875 29.230469 47.984375 29.703125 47.691406 C 30.066406 47.46875 30.765625 47.136719 30.859375 47.136719 C 30.972656 47.136719 31.128906 46.878906 31.105469 46.742188 C 31.082031 46.65625 31.105469 46.597656 31.167969 46.542969 C 31.230469 46.480469 31.25 46.429688 31.230469 46.328125 C 31.203125 46.152344 31.230469 46.109375 31.480469 46.003906 C 31.773438 45.882812 31.78125 45.796875 31.554688 45.417969 C 31.085938 44.628906 31.054688 44.5625 31.113281 44.382812 C 31.140625 44.292969 31.160156 44.175781 31.160156 44.125 C 31.160156 44.039062 30.949219 43.105469 30.921875 43.082031 C 30.917969 43.078125 30.816406 43.097656 30.699219 43.132812 C 30.1875 43.289062 29.558594 43.167969 29.089844 42.835938 C 28.964844 42.746094 28.863281 42.6875 28.863281 42.710938 C 28.863281 42.726562 28.921875 42.839844 28.992188 42.960938 C 29.191406 43.304688 29.5 43.578125 29.9375 43.789062 C 30.152344 43.890625 30.3125 43.988281 30.289062 44 C 30.113281 44.105469 29.5 44.058594 29.054688 43.898438 C 28.917969 43.851562 28.796875 43.820312 28.789062 43.828125 C 28.753906 43.863281 29.230469 44.253906 29.441406 44.363281 L 29.679688 44.480469 L 29.550781 44.527344 C 29.3125 44.605469 28.738281 44.425781 28.3125 44.136719 C 28.21875 44.074219 28.136719 44.035156 28.125 44.042969 C 28.082031 44.09375 28.488281 44.519531 28.703125 44.652344 C 28.839844 44.730469 28.953125 44.8125 28.953125 44.835938 C 28.953125 44.859375 28.757812 44.863281 28.503906 44.847656 C 28.125 44.832031 28.019531 44.804688 27.78125 44.691406 C 27.160156 44.390625 26.699219 43.570312 26.699219 42.789062 C 26.699219 42.382812 26.769531 42.09375 26.953125 41.695312 C 27.113281 41.363281 27.308594 41.226562 27.859375 41.070312 C 28.515625 40.882812 29.105469 40.953125 29.636719 41.285156 C 29.886719 41.4375 29.980469 41.472656 30.207031 41.484375 C 30.539062 41.507812 30.882812 41.390625 31.140625 41.164062 C 31.238281 41.082031 31.328125 41.011719 31.351562 41.011719 C 31.414062 41.011719 31.382812 41.367188 31.292969 41.589844 C 31.183594 41.882812 31.183594 41.886719 31.328125 41.886719 C 31.558594 41.886719 31.886719 41.761719 32.128906 41.582031 C 32.257812 41.480469 32.367188 41.40625 32.378906 41.414062 C 32.382812 41.421875 32.359375 41.554688 32.328125 41.710938 C 32.253906 42.074219 32.054688 42.472656 31.816406 42.742188 L 31.628906 42.945312 L 31.824219 42.914062 C 32 42.886719 32.015625 42.890625 31.988281 42.976562 C 31.964844 43.0625 31.976562 43.070312 32.125 43.039062 C 32.21875 43.019531 32.488281 43.003906 32.730469 43.003906 C 33.140625 43.003906 33.195312 43.011719 33.464844 43.148438 C 33.742188 43.289062 34.238281 43.675781 34.140625 43.679688 C 34.117188 43.679688 34.011719 43.640625 33.910156 43.59375 C 33.527344 43.410156 32.964844 43.324219 32.730469 43.414062 C 32.664062 43.441406 32.6875 43.453125 32.832031 43.480469 C 33.066406 43.515625 33.039062 43.578125 32.78125 43.601562 C 32.492188 43.636719 32.238281 43.777344 31.890625 44.101562 C 31.511719 44.453125 31.691406 44.417969 32.160156 44.042969 C 32.257812 43.964844 32.457031 43.847656 32.601562 43.78125 C 32.832031 43.671875 32.917969 43.660156 33.304688 43.660156 C 33.710938 43.660156 33.769531 43.671875 34.035156 43.800781 C 34.351562 43.953125 34.5625 44.132812 34.738281 44.402344 C 34.804688 44.503906 34.878906 44.578125 34.910156 44.566406 C 35.007812 44.535156 35.40625 44.980469 35.542969 45.269531 C 35.890625 46.023438 35.878906 46.640625 35.492188 47.34375 C 35.394531 47.519531 35.328125 47.664062 35.339844 47.664062 C 35.347656 47.664062 35.558594 47.613281 35.8125 47.558594 C 36.253906 47.453125 36.667969 47.394531 36.703125 47.429688 C 36.714844 47.4375 36.695312 47.53125 36.664062 47.632812 C 36.625 47.765625 36.578125 47.835938 36.460938 47.894531 C 36.324219 47.96875 36.324219 47.972656 36.433594 47.953125 C 36.582031 47.917969 36.582031 47.945312 36.453125 48.292969 L 36.355469 48.550781 L 35.816406 48.792969 C 35.515625 48.925781 35.28125 49.039062 35.285156 49.050781 C 35.292969 49.058594 35.527344 49.003906 35.808594 48.929688 C 36.085938 48.859375 36.316406 48.800781 36.324219 48.800781 C 36.355469 48.800781 36.324219 48.949219 36.257812 49.085938 C 36.195312 49.210938 36.136719 49.253906 35.921875 49.332031 C 35.605469 49.449219 35.28125 49.652344 34.609375 50.15625 C 34.332031 50.367188 33.933594 50.652344 33.726562 50.789062 C 33.394531 51.015625 33.371094 51.066406 33.65625 50.960938 C 33.808594 50.90625 33.710938 51.03125 33.460938 51.210938 C 33.105469 51.46875 32.726562 51.59375 32.332031 51.601562 C 31.554688 51.601562 30.960938 51.25 30.636719 50.585938 C 30.457031 50.226562 30.398438 49.875 30.417969 49.390625 C 30.445312 48.894531 30.597656 48.53125 30.878906 48.273438 C 31.082031 48.089844 31.191406 48.046875 31.140625 48.175781 C 31 48.492188 30.945312 48.726562 30.941406 48.996094 C 30.9375 49.796875 31.382812 50.609375 31.992188 50.917969 C 32.117188 50.980469 32.230469 51.03125 32.238281 51.03125 C 32.253906 51.03125 32.304688 50.953125 32.355469 50.851562 C 32.488281 50.597656 32.789062 50.316406 32.996094 50.253906 C 33.09375 50.222656 33.394531 50.183594 33.667969 50.167969 C 34.304688 50.132812 34.34375 50.109375 34.34375 49.667969 C 34.34375 49.382812 34.355469 49.339844 34.464844 49.230469 C 34.570312 49.121094 34.578125 49.09375 34.523438 49.011719 C 34.480469 48.9375 34.480469 48.902344 34.523438 48.816406 C 34.570312 48.730469 34.566406 48.6875 34.5 48.539062 C 34.421875 48.371094 34.421875 48.359375 34.496094 48.28125 C 34.539062 48.230469 34.632812 48.171875 34.703125 48.144531 C 34.921875 48.050781 34.898438 47.960938 34.53125 47.515625 C 34.371094 47.320312 34.183594 47.070312 34.113281 46.960938 C 33.992188 46.769531 33.984375 46.753906 34.015625 46.371094 C 34.046875 45.929688 33.980469 45.683594 33.722656 45.28125 C 33.589844 45.074219 33.582031 45.074219 33.402344 45.09375 C 33.300781 45.113281 33.121094 45.140625 32.996094 45.167969 C 32.753906 45.21875 32.398438 45.171875 32.179688 45.058594 C 31.929688 44.933594 31.597656 44.59375 31.792969 44.671875 C 31.917969 44.714844 32.230469 44.601562 32.566406 44.390625 C 33.121094 44.039062 33.433594 44.003906 33.882812 44.242188 C 34.238281 44.433594 34.375 44.800781 34.246094 45.21875 C 34.183594 45.4375 34.140625 45.429688 34.105469 45.207031 C 34.042969 44.820312 33.835938 44.636719 33.394531 44.582031 L 33.171875 44.554688 L 33.375 44.621094 C 33.769531 44.75 34.078125 45.160156 34.164062 45.667969 L 34.199219 45.890625 L 34.292969 45.6875 C 34.566406 45.109375 34.386719 44.402344 33.90625 44.167969 C 33.660156 44.042969 33.304688 43.972656 33.078125 44.007812 C 32.972656 44.023438 32.632812 44.164062 32.328125 44.320312 C 31.964844 44.503906 31.722656 44.601562 31.621094 44.601562 L 31.472656 44.601562 L 31.558594 44.761719 C 31.609375 44.855469 31.648438 44.988281 31.648438 45.066406 C 31.648438 45.140625 31.660156 45.238281 31.675781 45.277344 C 31.71875 45.390625 31.78125 45.269531 31.78125 45.058594 C 31.78125 44.910156 31.789062 44.898438 31.84375 44.949219 C 31.925781 45.042969 32 45.28125 32 45.460938 C 32 45.660156 32.082031 45.605469 32.117188 45.382812 C 32.132812 45.292969 32.160156 45.210938 32.183594 45.210938 C 32.203125 45.210938 32.269531 45.3125 32.335938 45.4375 C 32.617188 45.988281 32.351562 46.796875 31.675781 47.46875 C 31.425781 47.714844 31.277344 47.820312 30.960938 47.964844 C 29.777344 48.515625 29.566406 48.660156 29.476562 48.996094 C 29.449219 49.09375 29.4375 49.285156 29.449219 49.421875 C 29.464844 49.5625 29.457031 49.675781 29.4375 49.675781 C 29.355469 49.675781 29.238281 49.25 29.242188 48.953125 C 29.242188 48.648438 29.335938 48.382812 29.523438 48.164062 C 29.5625 48.121094 29.480469 48.15625 29.347656 48.253906 C 28.890625 48.574219 28.488281 48.910156 28.035156 49.339844 C 27.507812 49.84375 27.578125 49.648438 27.230469 51.589844 C 26.941406 53.203125 26.742188 53.972656 26.523438 54.3125 C 26.316406 54.640625 25.953125 54.828125 25.640625 54.773438 C 25.433594 54.734375 25.171875 54.46875 25.105469 54.234375 C 25.035156 53.960938 25.042969 53.359375 25.128906 53.035156 C 25.335938 52.238281 25.90625 51.261719 26.722656 50.324219 C 26.902344 50.121094 26.957031 50.015625 27.023438 49.753906 C 27.070312 49.578125 27.144531 49.324219 27.1875 49.195312 C 27.238281 49.0625 27.273438 48.949219 27.273438 48.945312 C 27.273438 48.9375 27.179688 49.003906 27.0625 49.09375 C 26.789062 49.296875 26.613281 49.367188 26.378906 49.367188 C 25.988281 49.363281 25.679688 49.0625 25.679688 48.683594 C 25.679688 48.578125 25.667969 48.492188 25.652344 48.492188 C 25.636719 48.492188 25.527344 48.5625 25.410156 48.648438 C 25.292969 48.730469 25.179688 48.800781 25.167969 48.800781 C 25.15625 48.800781 25.070312 48.847656 24.980469 48.910156 C 24.570312 49.183594 23.835938 49.378906 23.160156 49.386719 C 22.695312 49.390625 22.628906 49.382812 22.402344 49.273438 C 21.945312 49.0625 21.765625 48.695312 21.804688 48.066406 C 21.820312 47.757812 21.816406 47.707031 21.761719 47.722656 C 21.730469 47.738281 21.382812 47.957031 21.003906 48.203125 C 20.324219 48.652344 19.75 49.074219 19.089844 49.617188 L 18.757812 49.894531 L 18.679688 50.230469 C 18.355469 51.621094 17.535156 54.015625 17.144531 54.691406 C 16.828125 55.238281 16.386719 55.382812 16.058594 55.042969 C 15.660156 54.636719 15.695312 53.550781 16.140625 52.554688 C 16.464844 51.828125 16.929688 51.191406 17.664062 50.476562 L 18.207031 49.941406 L 18.515625 48.75 C 18.6875 48.09375 18.816406 47.546875 18.808594 47.539062 C 18.769531 47.5 17.964844 47.742188 17.285156 48 L 16.875 48.15625 L 16.765625 48.402344 C 16.707031 48.539062 16.613281 48.742188 16.5625 48.867188 C 15.894531 50.375 14.792969 51.582031 13.488281 52.230469 C 12.289062 52.828125 10.1875 53.148438 9.496094 52.839844 C 9.109375 52.667969 9.007812 52.296875 9.238281 51.929688 C 9.75 51.105469 12.796875 49.359375 15.78125 48.179688 C 16.085938 48.054688 16.355469 47.9375 16.378906 47.90625 C 16.507812 47.785156 16.835938 46.609375 16.960938 45.820312 C 17.058594 45.199219 17.070312 43.742188 16.980469 43.242188 C 16.757812 41.996094 16.238281 41.085938 15.566406 40.761719 C 15.351562 40.65625 15.265625 40.640625 14.941406 40.644531 C 14.484375 40.648438 14.203125 40.746094 13.730469 41.0625 C 13.164062 41.433594 12.96875 41.699219 12.601562 42.617188 C 12.054688 43.996094 10.941406 47.761719 10.609375 49.367188 C 10.464844 50.058594 10.414062 50.234375 10.339844 50.300781 C 10.175781 50.433594 9.988281 50.332031 9.988281 50.113281 C 9.988281 49.9375 10.429688 47.796875 10.785156 46.261719 C 10.832031 46.058594 10.945312 45.566406 11.03125 45.167969 C 11.117188 44.769531 11.328125 43.824219 11.496094 43.070312 C 11.667969 42.3125 11.835938 41.554688 11.871094 41.390625 C 11.90625 41.222656 11.976562 40.921875 12.023438 40.71875 C 12.070312 40.519531 12.109375 40.328125 12.109375 40.304688 C 12.109375 40.226562 11.863281 40.480469 11.683594 40.738281 C 11.523438 40.96875 11.417969 41.015625 11.277344 40.929688 C 11.128906 40.835938 11.453125 40.316406 12.019531 39.730469 C 12.363281 39.375 12.40625 39.34375 12.542969 39.359375 C 12.628906 39.367188 12.714844 39.402344 12.742188 39.441406 Z M 35.429688 41.738281 C 35.90625 41.960938 36.277344 42.78125 36.117188 43.257812 C 36.0625 43.410156 35.78125 43.679688 35.675781 43.679688 C 35.648438 43.679688 35.625 43.691406 35.625 43.703125 C 35.625 43.738281 35.855469 44.074219 35.878906 44.074219 C 35.890625 44.074219 35.867188 44.023438 35.828125 43.960938 C 35.785156 43.898438 35.757812 43.816406 35.765625 43.777344 C 35.777344 43.726562 35.8125 43.753906 35.890625 43.878906 C 35.949219 43.972656 36.21875 44.367188 36.492188 44.753906 C 37.117188 45.640625 37.101562 45.621094 37.023438 45.773438 C 36.988281 45.84375 36.925781 45.921875 36.890625 45.953125 C 36.828125 46.003906 36.820312 45.996094 36.820312 45.890625 C 36.820312 45.804688 36.800781 45.777344 36.753906 45.792969 C 36.707031 45.816406 36.550781 45.574219 36.160156 44.894531 C 35.867188 44.382812 35.605469 43.929688 35.574219 43.886719 C 35.53125 43.835938 35.441406 43.808594 35.25 43.796875 C 34.925781 43.777344 34.75 43.695312 34.488281 43.4375 C 33.9375 42.890625 34.007812 42.066406 34.632812 41.742188 C 34.808594 41.652344 35.238281 41.648438 35.429688 41.738281 Z M 37.332031 45.789062 C 37.402344 45.84375 37.46875 45.890625 37.476562 45.894531 C 37.488281 45.902344 37.421875 45.96875 37.335938 46.039062 C 37.253906 46.113281 37.160156 46.234375 37.128906 46.3125 L 37.070312 46.441406 L 36.988281 46.320312 C 36.890625 46.175781 36.90625 46.007812 37.042969 45.820312 C 37.152344 45.667969 37.167969 45.667969 37.332031 45.789062 Z M 19.402344 45.90625 C 19.46875 46.035156 19.457031 46.335938 19.382812 46.480469 C 19.289062 46.660156 19.066406 46.667969 19 46.488281 C 18.945312 46.339844 18.976562 46.074219 19.066406 45.933594 C 19.15625 45.804688 19.335938 45.789062 19.402344 45.90625 Z M 33.59375 46.171875 C 33.65625 46.1875 33.707031 46.234375 33.714844 46.277344 C 33.734375 46.367188 33.671875 46.371094 33.492188 46.277344 C 33.410156 46.234375 33.238281 46.191406 33.105469 46.175781 L 32.863281 46.144531 L 33.171875 46.140625 C 33.34375 46.140625 33.53125 46.152344 33.59375 46.171875 Z M 38.417969 47.171875 C 38.507812 47.40625 38.5625 47.601562 38.539062 47.609375 C 38.507812 47.625 38.339844 47.574219 37.894531 47.421875 C 37.855469 47.410156 37.894531 47.296875 38.023438 47.054688 C 38.128906 46.863281 38.21875 46.71875 38.234375 46.726562 C 38.246094 46.738281 38.328125 46.941406 38.417969 47.171875 Z M 33.726562 46.835938 C 33.726562 46.859375 33.683594 46.914062 33.636719 46.960938 C 33.5625 47.035156 33.492188 47.050781 33.121094 47.050781 L 32.6875 47.046875 L 32.839844 46.960938 C 32.929688 46.914062 33.089844 46.878906 33.21875 46.875 C 33.339844 46.875 33.488281 46.84375 33.546875 46.8125 C 33.660156 46.753906 33.726562 46.757812 33.726562 46.835938 Z M 38.105469 47.558594 C 38.386719 47.640625 38.699219 47.792969 39.019531 48 C 39.335938 48.203125 39.3125 48.261719 38.980469 48.09375 C 38.683594 47.953125 38.128906 47.792969 37.894531 47.792969 C 37.726562 47.792969 37.671875 47.714844 37.746094 47.578125 C 37.804688 47.46875 37.800781 47.46875 38.105469 47.558594 Z M 38.542969 48.011719 C 38.992188 48.140625 39.394531 48.371094 39.726562 48.695312 C 40.042969 49.003906 40.191406 49.292969 40.265625 49.726562 C 40.34375 50.140625 40.296875 50.191406 40.1875 49.824219 C 40.082031 49.472656 39.792969 49.027344 39.5625 48.847656 C 39.25 48.601562 38.847656 48.441406 38.359375 48.367188 C 38.015625 48.308594 38.113281 48.382812 38.496094 48.472656 C 38.6875 48.515625 38.871094 48.5625 38.898438 48.582031 C 38.949219 48.613281 39.292969 49.546875 39.292969 49.65625 C 39.292969 49.707031 39.25 49.695312 39.109375 49.613281 C 39.003906 49.550781 38.820312 49.453125 38.707031 49.390625 C 38.589844 49.328125 38.480469 49.242188 38.46875 49.203125 C 38.449219 49.164062 38.339844 48.96875 38.226562 48.777344 C 38.109375 48.585938 38.035156 48.417969 38.058594 48.414062 C 38.082031 48.40625 38.101562 48.378906 38.101562 48.359375 C 38.101562 48.335938 37.941406 48.320312 37.746094 48.320312 C 37.53125 48.320312 37.394531 48.300781 37.394531 48.273438 C 37.394531 48.25 37.433594 48.148438 37.488281 48.046875 L 37.578125 47.867188 L 37.894531 47.894531 C 38.070312 47.910156 38.363281 47.964844 38.542969 48.011719 Z M 30.71875 48.265625 C 30.71875 48.289062 30.671875 48.347656 30.613281 48.402344 C 30.554688 48.453125 30.445312 48.625 30.367188 48.773438 C 30.253906 48.992188 30.21875 49.125 30.203125 49.398438 C 30.160156 50.011719 30.339844 50.488281 30.789062 50.984375 C 31.074219 51.292969 31.035156 51.3125 30.597656 51.066406 C 30.097656 50.785156 29.671875 50.195312 29.625 49.722656 C 29.589844 49.332031 29.792969 48.851562 30.097656 48.601562 C 30.234375 48.488281 30.644531 48.234375 30.6875 48.230469 C 30.707031 48.230469 30.71875 48.25 30.71875 48.265625 Z M 37.75 48.90625 C 37.992188 48.976562 38.25 49.101562 38.21875 49.132812 C 38.203125 49.15625 37.03125 49.023438 37.003906 48.996094 C 36.996094 48.988281 37 48.941406 37.019531 48.886719 C 37.050781 48.796875 37.066406 48.792969 37.300781 48.816406 C 37.4375 48.835938 37.640625 48.875 37.75 48.90625 Z M 38.28125 49.324219 C 38.667969 49.417969 39.167969 49.695312 39.539062 50.035156 C 39.765625 50.238281 40.300781 50.964844 40.257812 51.015625 C 40.246094 51.023438 40.144531 50.914062 40.023438 50.765625 C 39.605469 50.238281 38.890625 49.769531 38.285156 49.632812 C 38.007812 49.570312 37.34375 49.550781 36.964844 49.601562 C 36.707031 49.632812 36.6875 49.632812 36.6875 49.550781 C 36.6875 49.503906 36.726562 49.417969 36.773438 49.355469 C 36.851562 49.265625 36.914062 49.238281 37.097656 49.230469 C 37.480469 49.203125 37.929688 49.242188 38.28125 49.324219 Z M 36.113281 49.53125 C 36.023438 49.824219 35.96875 49.894531 35.726562 50.050781 C 35.371094 50.273438 35.296875 50.339844 34.5 51.113281 C 33.730469 51.863281 33.53125 52.015625 33.039062 52.238281 C 32.3125 52.570312 31.5625 52.601562 30.746094 52.328125 C 30.042969 52.089844 29.640625 51.660156 29.460938 50.953125 C 29.382812 50.671875 29.308594 49.851562 29.355469 49.851562 C 29.371094 49.851562 29.40625 49.910156 29.4375 49.984375 C 29.539062 50.226562 29.816406 50.609375 30.0625 50.847656 C 30.230469 51.015625 30.433594 51.144531 30.742188 51.296875 C 31.324219 51.578125 31.667969 51.65625 32.332031 51.660156 C 33.164062 51.664062 33.371094 51.5625 34.292969 50.671875 C 34.953125 50.039062 35.207031 49.839844 35.671875 49.59375 C 36.078125 49.378906 36.164062 49.363281 36.113281 49.53125 Z M 37.898438 49.675781 C 38.566406 49.769531 39.253906 50.085938 39.636719 50.472656 C 39.792969 50.636719 40.132812 51.117188 40.132812 51.183594 C 40.132812 51.246094 40.007812 51.191406 39.910156 51.09375 C 39.582031 50.746094 38.75 50.304688 38.203125 50.183594 C 37.8125 50.09375 37.089844 50.09375 36.664062 50.171875 C 36.496094 50.207031 36.347656 50.226562 36.335938 50.21875 C 36.328125 50.207031 36.382812 50.097656 36.453125 49.972656 C 36.578125 49.753906 36.597656 49.734375 36.824219 49.6875 C 37.132812 49.621094 37.480469 49.617188 37.898438 49.675781 Z M 35.878906 50.230469 C 35.800781 50.597656 35.558594 50.917969 35.078125 51.285156 C 34.804688 51.496094 34.125 51.863281 34.011719 51.863281 C 33.898438 51.863281 33.941406 51.800781 34.136719 51.6875 C 34.238281 51.625 34.65625 51.25 35.074219 50.84375 C 35.484375 50.441406 35.84375 50.113281 35.863281 50.113281 C 35.886719 50.113281 35.890625 50.164062 35.878906 50.230469 Z M 39.824219 51.175781 C 39.921875 51.40625 39.972656 51.601562 39.925781 51.601562 C 39.894531 51.601562 39.523438 51.007812 39.476562 50.890625 C 39.46875 50.871094 39.523438 50.882812 39.605469 50.921875 C 39.691406 50.964844 39.773438 51.058594 39.824219 51.175781 Z M 11.46875 53.386719 L 11.601562 53.421875 L 11.585938 53.75 C 11.582031 53.925781 11.566406 54.078125 11.5625 54.082031 C 11.558594 54.085938 11.460938 54.066406 11.347656 54.042969 C 11.230469 54.019531 10.933594 54.007812 10.695312 54.015625 C 10.285156 54.027344 10.25 54.035156 10.136719 54.152344 C 10.019531 54.265625 10.011719 54.296875 10 54.753906 C 9.976562 55.285156 10.035156 55.574219 10.175781 55.699219 C 10.25 55.765625 10.347656 55.777344 10.800781 55.777344 C 11.09375 55.777344 11.390625 55.765625 11.457031 55.746094 L 11.570312 55.710938 L 11.589844 56.046875 C 11.597656 56.230469 11.589844 56.386719 11.570312 56.394531 C 11.554688 56.40625 11.320312 56.4375 11.050781 56.464844 C 10.121094 56.5625 9.566406 56.402344 9.347656 55.976562 C 9.125 55.539062 9.101562 54.371094 9.308594 53.878906 C 9.4375 53.574219 9.699219 53.402344 10.144531 53.332031 C 10.339844 53.300781 11.316406 53.339844 11.46875 53.386719 Z M 14.148438 53.394531 C 14.488281 53.488281 14.753906 53.753906 14.851562 54.089844 C 14.929688 54.355469 14.957031 55.140625 14.898438 55.472656 C 14.78125 56.140625 14.515625 56.378906 13.78125 56.464844 C 13.488281 56.5 13.285156 56.5 13.015625 56.464844 C 12.441406 56.390625 12.207031 56.238281 12.015625 55.820312 C 11.921875 55.625 11.914062 55.539062 11.914062 54.945312 C 11.914062 54.527344 11.933594 54.214844 11.972656 54.089844 C 12.089844 53.691406 12.402344 53.433594 12.871094 53.351562 C 13.152344 53.300781 13.925781 53.328125 14.148438 53.394531 Z M 15.75 53.554688 C 15.730469 53.671875 15.714844 54 15.714844 54.289062 C 15.714844 54.761719 15.722656 54.832031 15.820312 55 C 15.875 55.101562 15.992188 55.21875 16.074219 55.261719 L 16.226562 55.339844 L 16.210938 55.886719 L 16.199219 56.433594 L 15.402344 56.433594 L 15.390625 54.890625 L 15.382812 53.351562 L 15.785156 53.351562 Z M 19.273438 53.765625 L 19.273438 54.09375 L 17.769531 54.09375 L 17.769531 54.75 L 19.183594 54.75 L 19.183594 55.40625 L 17.769531 55.40625 L 17.769531 56.5 L 16.972656 56.5 L 16.972656 55.195312 L 17.117188 54.980469 C 17.203125 54.859375 17.375 54.5 17.503906 54.175781 C 17.632812 53.851562 17.753906 53.554688 17.777344 53.511719 C 17.8125 53.445312 17.898438 53.4375 18.542969 53.4375 L 19.273438 53.4375 Z M 21.921875 53.765625 L 21.921875 54.09375 L 20.421875 54.09375 L 20.421875 54.75 L 21.835938 54.75 L 21.835938 55.402344 L 21.140625 55.414062 L 20.441406 55.429688 L 20.429688 55.960938 L 20.417969 56.5 L 19.625 56.5 L 19.625 53.4375 L 21.921875 53.4375 Z M 23.082031 54.496094 C 23.089844 55.226562 23.113281 55.589844 23.148438 55.652344 C 23.25 55.828125 23.71875 55.90625 23.957031 55.785156 C 24.140625 55.695312 24.171875 55.511719 24.171875 54.429688 L 24.179688 53.4375 L 24.972656 53.4375 L 24.972656 54.519531 C 24.96875 55.675781 24.941406 55.902344 24.769531 56.164062 C 24.582031 56.453125 24.355469 56.523438 23.625 56.523438 C 23.0625 56.523438 22.988281 56.511719 22.792969 56.417969 C 22.550781 56.296875 22.390625 56.089844 22.324219 55.800781 C 22.300781 55.691406 22.277344 55.117188 22.277344 54.519531 L 22.277344 53.4375 L 23.0625 53.4375 Z M 27.785156 53.574219 C 28.042969 53.730469 28.164062 53.957031 28.191406 54.324219 C 28.199219 54.5 28.1875 54.71875 28.160156 54.820312 C 28.101562 55.03125 27.855469 55.332031 27.679688 55.402344 L 27.554688 55.453125 L 27.699219 55.613281 C 27.824219 55.738281 28.167969 56.214844 28.304688 56.441406 C 28.332031 56.488281 28.226562 56.5 27.851562 56.5 L 27.363281 56.5 L 27.207031 56.238281 C 26.910156 55.757812 26.710938 55.539062 26.566406 55.539062 L 26.4375 55.539062 L 26.421875 56.003906 L 26.410156 56.476562 L 26.003906 56.492188 L 25.59375 56.503906 L 25.59375 55.6875 C 25.59375 54.929688 25.597656 54.871094 25.671875 54.902344 C 25.867188 54.976562 25.988281 54.972656 26.195312 54.886719 C 26.34375 54.820312 26.414062 54.808594 26.4375 54.84375 C 26.453125 54.871094 26.589844 54.886719 26.828125 54.871094 C 27.261719 54.855469 27.359375 54.78125 27.359375 54.460938 C 27.359375 54.214844 27.238281 54.09375 26.996094 54.09375 C 26.90625 54.09375 26.828125 54.082031 26.828125 54.066406 C 26.828125 54.054688 26.875 53.902344 26.921875 53.734375 L 27.019531 53.425781 L 27.324219 53.449219 C 27.523438 53.46875 27.683594 53.507812 27.785156 53.574219 Z M 31.074219 53.765625 L 31.074219 54.09375 L 29.570312 54.09375 L 29.570312 54.617188 L 30.84375 54.617188 L 30.875 55.273438 L 29.570312 55.273438 L 29.570312 55.84375 L 31.074219 55.84375 L 31.074219 56.5 L 28.730469 56.5 L 28.730469 53.4375 L 31.074219 53.4375 Z M 31.074219 53.765625 "/>
<path style=" stroke:none;fill-rule:nonzero;fill:rgb(0%,0%,0%);fill-opacity:1;" d="M 30.410156 42.734375 L 30.121094 42.789062 L 30.320312 42.839844 C 30.503906 42.890625 30.703125 42.910156 30.839844 42.898438 C 30.882812 42.894531 30.882812 42.867188 30.84375 42.785156 C 30.816406 42.722656 30.773438 42.679688 30.746094 42.679688 C 30.71875 42.683594 30.570312 42.710938 30.410156 42.734375 Z M 30.410156 42.734375 "/>
<path style=" stroke:none;fill-rule:nonzero;fill:rgb(0%,0%,0%);fill-opacity:1;" d="M 31.722656 43.59375 C 31.542969 43.652344 31.277344 43.855469 31.328125 43.910156 C 31.390625 43.96875 31.644531 43.847656 31.796875 43.6875 C 31.933594 43.546875 31.925781 43.53125 31.722656 43.59375 Z M 31.722656 43.59375 "/>
<path style=" stroke:none;fill-rule:nonzero;fill:rgb(0%,0%,0%);fill-opacity:1;" d="M 34.898438 44.703125 C 34.988281 45.015625 35.015625 45.222656 35 45.613281 C 34.980469 45.996094 34.957031 46.113281 34.839844 46.394531 L 34.703125 46.722656 L 34.824219 46.585938 C 35.011719 46.378906 35.140625 46.007812 35.140625 45.660156 C 35.140625 45.339844 35.050781 44.929688 34.9375 44.738281 C 34.902344 44.675781 34.878906 44.65625 34.898438 44.703125 Z M 34.898438 44.703125 "/>
<path style=" stroke:none;fill-rule:nonzero;fill:rgb(0%,0%,0%);fill-opacity:1;" d="M 31.21875 47.125 C 31.140625 47.164062 31.074219 47.210938 31.074219 47.230469 C 31.074219 47.25 31.144531 47.226562 31.226562 47.175781 C 31.3125 47.125 31.382812 47.078125 31.382812 47.066406 C 31.382812 47.046875 31.382812 47.046875 31.21875 47.125 Z M 31.21875 47.125 "/>
<path style=" stroke:none;fill-rule:nonzero;fill:rgb(0%,0%,0%);fill-opacity:1;" d="M 18.996094 47.167969 C 18.953125 47.175781 18.917969 47.226562 18.917969 47.269531 C 18.917969 47.3125 18.910156 47.378906 18.894531 47.414062 C 18.875 47.457031 18.898438 47.46875 19.007812 47.453125 C 19.175781 47.429688 19.289062 47.246094 19.179688 47.175781 C 19.144531 47.15625 19.109375 47.140625 19.09375 47.140625 C 19.082031 47.144531 19.039062 47.15625 18.996094 47.167969 Z M 18.996094 47.167969 "/>
<path style=" stroke:none;fill-rule:nonzero;fill:rgb(0%,0%,0%);fill-opacity:1;" d="M 22.039062 47.355469 C 21.972656 47.472656 21.929688 47.574219 21.945312 47.574219 C 22.007812 47.574219 22.320312 47.339844 22.320312 47.296875 C 22.320312 47.238281 22.234375 47.136719 22.1875 47.136719 C 22.171875 47.136719 22.105469 47.234375 22.039062 47.355469 Z M 22.039062 47.355469 "/>
<path style=" stroke:none;fill-rule:nonzero;fill:rgb(0%,0%,0%);fill-opacity:1;" d="M 30.742188 47.519531 C 30.644531 47.558594 30.414062 47.65625 30.234375 47.746094 L 29.902344 47.902344 L 30.144531 47.917969 C 30.671875 47.945312 30.984375 47.8125 30.984375 47.554688 C 30.984375 47.425781 30.976562 47.425781 30.742188 47.519531 Z M 30.742188 47.519531 "/>
<path style=" stroke:none;fill-rule:nonzero;fill:rgb(0%,0%,0%);fill-opacity:1;" d="M 15.117188 48.882812 C 13.566406 49.582031 11.484375 50.6875 10.679688 51.238281 C 10.117188 51.625 9.667969 52.046875 9.582031 52.265625 C 9.472656 52.546875 10.464844 52.59375 11.617188 52.359375 C 12.40625 52.203125 13.378906 51.800781 13.953125 51.394531 C 14.347656 51.117188 14.910156 50.558594 15.25 50.105469 C 15.488281 49.792969 16.175781 48.578125 16.175781 48.476562 C 16.175781 48.414062 16.03125 48.472656 15.117188 48.882812 Z M 15.117188 48.882812 "/>
<path style=" stroke:none;fill-rule:nonzero;fill:rgb(0%,0%,0%);fill-opacity:1;" d="M 17.652344 50.871094 C 17.070312 51.476562 16.59375 52.199219 16.355469 52.839844 C 16.125 53.445312 16.070312 54.085938 16.21875 54.445312 C 16.328125 54.710938 16.429688 54.707031 16.585938 54.421875 C 16.777344 54.066406 17.3125 52.699219 17.640625 51.710938 C 17.808594 51.203125 17.96875 50.734375 17.988281 50.664062 C 18.011719 50.59375 18.023438 50.527344 18.015625 50.519531 C 18.007812 50.511719 17.84375 50.667969 17.652344 50.871094 Z M 17.652344 50.871094 "/>
<path style=" stroke:none;fill-rule:nonzero;fill:rgb(0%,0%,0%);fill-opacity:1;" d="M 26.425781 51.152344 C 25.667969 52.210938 25.289062 53.207031 25.414062 53.804688 C 25.460938 54.023438 25.617188 54.269531 25.714844 54.269531 C 25.773438 54.269531 25.941406 54.101562 26.007812 53.972656 C 26.078125 53.832031 26.21875 53.398438 26.316406 53.023438 C 26.390625 52.730469 26.785156 50.710938 26.773438 50.699219 C 26.769531 50.691406 26.613281 50.894531 26.425781 51.152344 Z M 26.425781 51.152344 "/>
<path style=" stroke:none;fill-rule:nonzero;fill:rgb(0%,0%,0%);fill-opacity:1;" d="M 34.757812 41.925781 C 34.488281 42.050781 34.335938 42.273438 34.335938 42.539062 C 34.335938 43.023438 34.671875 43.5625 35.046875 43.675781 C 35.414062 43.78125 35.828125 43.546875 35.929688 43.171875 C 35.964844 43.035156 35.960938 42.941406 35.914062 42.742188 C 35.800781 42.324219 35.582031 42.046875 35.261719 41.914062 C 35.050781 41.828125 34.980469 41.828125 34.757812 41.925781 Z M 34.757812 41.925781 "/>
<path style=" stroke:none;fill-rule:nonzero;fill:rgb(0%,0%,0%);fill-opacity:1;" d="M 39.890625 42.253906 C 39.59375 42.398438 39.460938 42.59375 39.457031 42.886719 C 39.449219 43.433594 40.023438 43.75 40.480469 43.453125 C 40.898438 43.179688 40.898438 42.617188 40.484375 42.316406 C 40.332031 42.203125 40.058594 42.175781 39.890625 42.253906 Z M 39.890625 42.253906 "/>
<path style=" stroke:none;fill-rule:nonzero;fill:rgb(0%,0%,0%);fill-opacity:1;" d="M 39.246094 44.367188 C 38.84375 45.132812 38.832031 45.15625 38.882812 45.101562 C 38.945312 45.046875 39.617188 43.769531 39.589844 43.769531 C 39.578125 43.769531 39.421875 44.039062 39.246094 44.367188 Z M 39.246094 44.367188 "/>
<path style=" stroke:none;fill-rule:nonzero;fill:rgb(0%,0%,0%);fill-opacity:1;" d="M 38.675781 45.429688 C 38.601562 45.574219 38.550781 45.695312 38.566406 45.695312 C 38.574219 45.695312 38.644531 45.574219 38.71875 45.429688 C 38.796875 45.285156 38.84375 45.167969 38.832031 45.167969 C 38.820312 45.167969 38.75 45.285156 38.675781 45.429688 Z M 38.675781 45.429688 "/>
<path style=" stroke:none;fill-rule:nonzero;fill:rgb(0%,0%,0%);fill-opacity:1;" d="M 37.425781 46.429688 C 37.34375 46.511719 37.328125 46.6875 37.386719 46.769531 C 37.492188 46.933594 37.742188 46.914062 37.835938 46.742188 C 37.972656 46.488281 37.613281 46.21875 37.425781 46.429688 Z M 37.695312 46.53125 C 37.746094 46.609375 37.742188 46.632812 37.691406 46.691406 C 37.605469 46.769531 37.480469 46.730469 37.480469 46.621094 C 37.480469 46.546875 37.558594 46.4375 37.613281 46.4375 C 37.628906 46.4375 37.664062 46.480469 37.695312 46.53125 Z M 37.695312 46.53125 "/>
</g>
</svg>
